<svg width="560" height="114" viewBox="0 0 560 114" fill="none" xmlns="http://www.w3.org/2000/svg">
<path d="M539.359 17.4844H537.344V21.8125H539.422C541.62 21.8125 542.719 21.1198 542.719 19.7344C542.719 18.2344 541.599 17.4844 539.359 17.4844ZM539.797 15.8906C543.432 15.8906 545.25 17.0833 545.25 19.4688C545.25 21.4167 544.255 22.5885 542.266 22.9844L545.188 28.9375H542.422L539.766 23.375H537.344V28.9375H534.875V15.8906H539.797ZM549.5 22.7344C549.5 19.8802 548.552 17.5 546.656 15.5938C544.688 13.6146 542.307 12.625 539.516 12.625C536.734 12.625 534.411 13.5729 532.547 15.4688C530.516 17.5312 529.5 19.9219 529.5 22.6406C529.5 24.6198 530.068 26.4583 531.203 28.1562C532.349 29.8438 533.839 31.0729 535.672 31.8438C536.88 32.3646 538.13 32.625 539.422 32.625C542.182 32.625 544.573 31.6458 546.594 29.6875C548.531 27.8125 549.5 25.4948 549.5 22.7344ZM539.484 11.125C542.714 11.125 545.453 12.2656 547.703 14.5469C549.922 16.7969 551.031 19.4948 551.031 22.6406C551.031 25.8594 549.911 28.5573 547.672 30.7344C545.328 33.0156 542.599 34.1562 539.484 34.1562C536.339 34.1562 533.63 33.0052 531.359 30.7031C529.12 28.4323 528 25.7448 528 22.6406C528 19.4948 529.161 16.7448 531.484 14.3906C533.63 12.2135 536.297 11.125 539.484 11.125Z" fill="#FEFEFE"/>
<path d="M306.281 69.5V21.375H328.5V26.25H311.781V41.7188H327.344V46.7188H311.781V69.5H306.281ZM350.843 69.5V64.8125C349.363 68.5833 346.374 70.4688 341.874 70.4688C338.79 70.4688 336.561 69.6771 335.186 68.0938C333.895 66.6146 333.249 64.3125 333.249 61.1875V33.5312H338.499V61.3125C338.499 64.4167 339.905 65.9688 342.718 65.9688C345.259 65.9688 347.197 65.1562 348.53 63.5312C349.78 62.0312 350.405 59.9896 350.405 57.4062V33.5312H355.499V69.5H350.843ZM364.779 69.5V33.5312H369.435V39.4062C370.998 34.9271 373.779 32.6875 377.779 32.6875C378.675 32.6875 379.393 32.7292 379.935 32.8125V38.1875C379.393 37.8958 378.737 37.75 377.966 37.75C375.195 37.75 373.102 38.7083 371.685 40.625C370.414 42.3333 369.779 44.6146 369.779 47.4688V69.5H364.779ZM385.871 69.5V33.5312H390.59V38C392.34 34.5 395.35 32.75 399.621 32.75C403.017 32.75 405.392 33.7083 406.746 35.625C407.85 37.2292 408.402 39.8333 408.402 43.4375V69.5H403.34V43.0625C403.34 39.1875 401.652 37.25 398.277 37.25C395.965 37.25 394.142 37.9896 392.809 39.4688C391.559 40.8854 390.934 42.7708 390.934 45.125V69.5H385.871ZM417.214 27.9062V21.375H422.401V27.9062H417.214ZM417.214 69.5V33.5312H422.401V69.5H417.214ZM437.056 62.0625C437.056 63.7083 437.431 64.7604 438.181 65.2188C438.723 65.5521 439.91 65.7188 441.744 65.7188C442.244 65.7188 442.619 65.6979 442.869 65.6562L442.9 70.0625C442.733 70.0833 442.317 70.1042 441.65 70.125C440.296 70.1875 439.473 70.2188 439.181 70.2188C434.494 70.2188 432.15 68.3125 432.15 64.5V37.6875H427.15V33.5312H432.15V23.9375H437.056V33.5312H442.9V37.6875H437.056V62.0625ZM465.805 69.5V64.8125C464.326 68.5833 461.336 70.4688 456.836 70.4688C453.753 70.4688 451.524 69.6771 450.149 68.0938C448.857 66.6146 448.211 64.3125 448.211 61.1875V33.5312H453.461V61.3125C453.461 64.4167 454.867 65.9688 457.68 65.9688C460.222 65.9688 462.159 65.1562 463.492 63.5312C464.742 62.0312 465.367 59.9896 465.367 57.4062V33.5312H470.461V69.5H465.805ZM479.741 69.5V33.5312H484.398V39.4062C485.96 34.9271 488.741 32.6875 492.741 32.6875C493.637 32.6875 494.356 32.7292 494.898 32.8125V38.1875C494.356 37.8958 493.7 37.75 492.929 37.75C490.158 37.75 488.064 38.7083 486.648 40.625C485.377 42.3333 484.741 44.6146 484.741 47.4688V69.5H479.741ZM503.803 47.625H516.021V46.6562C516.021 39.9896 514.084 36.6562 510.209 36.6562C505.938 36.6562 503.803 40.3125 503.803 47.625ZM516.084 57.3438H521.021C520.938 66.0938 517.25 70.4688 509.959 70.4688C502.396 70.4688 498.615 64.2812 498.615 51.9062C498.615 46.3854 499.209 42.1458 500.396 39.1875C502.188 34.7292 505.417 32.5 510.084 32.5C517.459 32.5 521.146 37.8542 521.146 48.5625C521.146 49.9375 521.125 50.9792 521.084 51.6875L503.803 51.7188V53.3125C503.803 61.9375 505.98 66.25 510.334 66.25C512.375 66.25 513.896 65.2604 514.896 63.2812C515.688 61.7396 516.084 59.8438 516.084 57.5938V57.3438Z" fill="#FEFEFE"/>
<path d="M45.9375 70.5V30.3125H35.625V22.375H65.2188V30.3125H54.9062V70.5H45.9375ZM71.2487 70.5V22.375H80.155V41.25H92.4362V22.375H101.342V70.5H92.4362V48.6875H80.155V70.5H71.2487ZM110.841 70.5V22.375H119.81V70.5H110.841ZM129.309 70.5V22.375H154.027V30.375H138.215V41.5H152.934V49.125H138.215V62.375H154.402V70.5H129.309ZM132.809 19.9375L138.246 11.0312H144.621L150.059 19.9375H146.184L141.434 15.25L136.684 19.9375H132.809ZM162.276 70.5V22.375H171.495L184.026 56.0312L183.776 22.375H192.245V70.5H183.089L170.464 36.7812L170.714 70.5H162.276ZM228.367 51.1875H235.992L232.149 31L228.367 51.1875ZM215.492 70.5L226.336 22.375H238.367L249.305 70.5H239.649L237.274 58.4062H226.961L224.649 70.5H215.492ZM223.836 19.9375L229.274 11.0312H235.649L241.086 19.9375H237.211L232.461 15.25L227.711 19.9375H223.836ZM223.149 10.4375L228.586 1.53125H236.586L227.055 10.4375H223.149ZM255.304 70.5V22.375H264.523L277.054 56.0312L276.804 22.375H285.273V70.5H276.116L263.491 36.7812L263.741 70.5H255.304Z" fill="#FEFEFE"/>
<path d="M340.459 100.561H342.701V100.902C342.701 103.919 343.913 105.428 346.338 105.428C347.714 105.428 348.79 105.027 349.564 104.225C350.339 103.423 350.727 102.333 350.727 100.957C350.727 99.362 349.528 98.0859 347.131 97.1289C346.894 97.0286 346.584 96.901 346.201 96.7461C344.971 96.2539 344.073 95.6615 343.508 94.9688C342.888 94.2031 342.578 93.1914 342.578 91.9336C342.578 90.0013 343.152 88.4427 344.301 87.2578C345.449 86.0638 346.985 85.4668 348.908 85.4668C350.567 85.4668 351.893 85.9089 352.887 86.793C353.935 87.7135 354.459 88.9896 354.459 90.6211C354.459 90.9219 354.445 91.1361 354.418 91.2637H352.189V90.9902C352.189 88.6934 351.096 87.5449 348.908 87.5449C347.705 87.5449 346.748 87.9186 346.037 88.666C345.326 89.4043 344.971 90.375 344.971 91.5781C344.971 92.9727 346.16 94.1712 348.539 95.1738C348.639 95.2194 348.771 95.2786 348.936 95.3516C350.458 95.9987 351.506 96.6367 352.08 97.2656C352.809 98.0677 353.174 99.2025 353.174 100.67C353.174 102.739 352.531 104.398 351.246 105.646C349.97 106.886 348.298 107.506 346.229 107.506C344.378 107.506 342.943 106.977 341.922 105.92C340.91 104.863 340.404 103.404 340.404 101.545C340.404 101.326 340.418 101.025 340.445 100.643C340.454 100.606 340.459 100.579 340.459 100.561ZM357.289 107H354.787L359.189 85.9453H361.65L357.289 107ZM363.523 107H361.104L365.506 85.9453H368.637L372 104.279L375.555 85.9453H377.961L373.572 107H370.373L367.078 88.4609L363.523 107ZM389.309 100.055H391.469C391.113 102.197 390.384 103.919 389.281 105.223C387.996 106.745 386.342 107.506 384.318 107.506C380.572 107.506 378.699 105.273 378.699 100.807C378.699 99.084 378.932 97.1836 379.396 95.1055C379.87 93.0273 380.477 91.2227 381.215 89.6914C382.591 86.8385 384.692 85.4121 387.518 85.4121C389.24 85.4121 390.557 85.8906 391.469 86.8477C392.38 87.7956 392.836 89.1354 392.836 90.8672C392.836 91.3503 392.79 92.0202 392.699 92.877H390.457C390.512 92.2389 390.539 91.6829 390.539 91.209C390.539 88.6113 389.468 87.3125 387.326 87.3125C385.394 87.3125 383.963 88.6113 383.033 91.209C382.623 92.3574 382.222 93.8887 381.83 95.8027C381.383 97.9993 381.16 99.8268 381.16 101.285C381.16 104.147 382.272 105.578 384.496 105.578C385.818 105.578 386.925 104.963 387.818 103.732C388.511 102.766 389.008 101.54 389.309 100.055ZM393.533 107L397.936 85.9453H407.15L406.699 88.0098H399.918L398.469 94.9551H405.77L405.332 97.0332H398.045L396.391 104.867H404.402L403.979 107H393.533ZM421.109 107H418.867L422.148 90.5664C421.137 90.9036 420.166 91.0723 419.236 91.0723C418.653 91.0723 418.147 91.0404 417.719 90.9766L418.061 89.3906C419.455 89.3177 420.567 89.0352 421.396 88.543C422.281 88.0234 423.023 87.1576 423.625 85.9453H425.389L421.109 107ZM435.191 98.0449C436.531 98.0449 437.548 97.2793 438.24 95.748C438.769 94.5723 439.033 93.2279 439.033 91.7148C439.033 89.2448 438.126 88.0098 436.312 88.0098C435.091 88.0098 434.148 88.6113 433.482 89.8145C432.753 91.127 432.389 92.5443 432.389 94.0664C432.389 96.7188 433.323 98.0449 435.191 98.0449ZM438.268 97.9219C437.21 99.2344 435.989 99.8906 434.604 99.8906C433.081 99.8906 431.906 99.3118 431.076 98.1543C430.347 97.1335 429.982 95.8346 429.982 94.2578C429.982 92.1068 430.497 90.2428 431.527 88.666C432.712 86.834 434.326 85.918 436.367 85.918C439.676 85.918 441.33 88.0736 441.33 92.3848C441.33 94.1348 441.116 95.9941 440.688 97.9629C440.25 99.9954 439.658 101.768 438.91 103.281C437.534 106.079 435.643 107.479 433.236 107.479C431.851 107.479 430.762 107.041 429.969 106.166C429.194 105.318 428.807 104.197 428.807 102.803V102.57V102.543C428.825 102.415 428.834 102.297 428.834 102.188H430.939C430.994 104.43 431.805 105.551 433.373 105.551C435.643 105.551 437.274 103.008 438.268 97.9219ZM449.137 98.0449C450.477 98.0449 451.493 97.2793 452.186 95.748C452.714 94.5723 452.979 93.2279 452.979 91.7148C452.979 89.2448 452.072 88.0098 450.258 88.0098C449.036 88.0098 448.093 88.6113 447.428 89.8145C446.699 91.127 446.334 92.5443 446.334 94.0664C446.334 96.7188 447.268 98.0449 449.137 98.0449ZM452.213 97.9219C451.156 99.2344 449.934 99.8906 448.549 99.8906C447.027 99.8906 445.851 99.3118 445.021 98.1543C444.292 97.1335 443.928 95.8346 443.928 94.2578C443.928 92.1068 444.443 90.2428 445.473 88.666C446.658 86.834 448.271 85.918 450.312 85.918C453.621 85.918 455.275 88.0736 455.275 92.3848C455.275 94.1348 455.061 95.9941 454.633 97.9629C454.195 99.9954 453.603 101.768 452.855 103.281C451.479 106.079 449.588 107.479 447.182 107.479C445.796 107.479 444.707 107.041 443.914 106.166C443.139 105.318 442.752 104.197 442.752 102.803V102.57V102.543C442.77 102.415 442.779 102.297 442.779 102.188H444.885C444.939 104.43 445.751 105.551 447.318 105.551C449.588 105.551 451.219 103.008 452.213 97.9219ZM458.666 97.9766L459.117 95.7617H462.672C464.121 93.1367 465.898 90.6758 468.004 88.3789H459.391L459.773 86.2461H470.451L470.137 88.1875C468.095 90.5482 466.368 93.0729 464.955 95.7617H466.117L465.529 97.9766H463.875C462.544 100.957 461.656 103.965 461.209 107H458.83C459.258 103.947 460.165 100.939 461.551 97.9766H458.666Z" fill="#FEFEFE"/>
</svg>
