<svg width="40" height="40" viewBox="0 0 40 40" fill="none" xmlns="http://www.w3.org/2000/svg">
<path d="M28.9998 11.0002H11.0001C10.605 10.996 10.2129 11.0687 9.84701 11.2141C9.48108 11.3595 9.14865 11.5746 8.86922 11.8469C8.58978 12.1192 8.36897 12.4431 8.21974 12.7996C8.07051 13.1562 7.99586 13.5382 8.00018 13.9232V27.0768C7.99586 27.4618 8.07051 27.8438 8.21974 28.2003C8.36897 28.5569 8.58978 28.8807 8.86922 29.153C9.14865 29.4253 9.48108 29.6405 9.84701 29.7858C10.2129 29.9312 10.605 30.004 11.0001 29.9998H28.9998C29.395 30.004 29.787 29.9312 30.1529 29.7858C30.5189 29.6405 30.8513 29.4253 31.1307 29.153C31.4101 28.8807 31.6309 28.5569 31.7802 28.2003C31.9294 27.8438 32.0041 27.4618 31.9998 27.0768V13.9232C32.0041 13.5382 31.9294 13.1562 31.7802 12.7996C31.6309 12.4431 31.4101 12.1192 31.1307 11.8469C30.8513 11.5746 30.5189 11.3595 30.1529 11.2141C29.787 11.0687 29.395 10.996 28.9998 11.0002ZM29.4498 15.9693L20.45 22.546C20.3201 22.6409 20.1622 22.6922 20 22.6922C19.8377 22.6922 19.6798 22.6409 19.55 22.546L10.5501 15.9693C10.391 15.8531 10.2858 15.6799 10.2577 15.488C10.2295 15.2962 10.2808 15.1013 10.4001 14.9462C10.5195 14.7912 10.6971 14.6887 10.8941 14.6613C11.091 14.6339 11.291 14.6838 11.4501 14.8001L20 21.048L28.5498 14.8001C28.6287 14.7425 28.7183 14.7006 28.8137 14.6768C28.9091 14.653 29.0084 14.6477 29.1059 14.6613C29.2034 14.6749 29.2972 14.707 29.3819 14.7559C29.4666 14.8048 29.5407 14.8695 29.5998 14.9462C29.6589 15.023 29.702 15.1104 29.7263 15.2033C29.7508 15.2963 29.7562 15.393 29.7423 15.488C29.7283 15.583 29.6953 15.6744 29.6452 15.757C29.595 15.8396 29.5286 15.9117 29.4498 15.9693Z" fill="#B80022"/>
</svg>
