<svg width="28" height="28" viewBox="0 0 28 28" fill="none" xmlns="http://www.w3.org/2000/svg">
<path d="M21.4999 6.00015H6.50011C6.17081 5.9966 5.84411 6.05785 5.53918 6.1803C5.23424 6.30275 4.95721 6.48392 4.72435 6.7132C4.49149 6.94248 4.30748 7.21525 4.18312 7.51549C4.05876 7.81573 3.99655 8.13741 4.00015 8.46164V19.5384C3.99655 19.8626 4.05876 20.1843 4.18312 20.4845C4.30748 20.7848 4.49149 21.0575 4.72435 21.2868C4.95721 21.5161 5.23424 21.6973 5.53918 21.8197C5.84411 21.9421 6.17081 22.0034 6.50011 21.9999H21.4999C21.8292 22.0034 22.1559 21.9421 22.4608 21.8197C22.7658 21.6973 23.0428 21.5161 23.2756 21.2868C23.5085 21.0575 23.6925 20.7848 23.8169 20.4845C23.9412 20.1843 24.0035 19.8626 23.9999 19.5384V8.46164C24.0035 8.13741 23.9412 7.81573 23.8169 7.51549C23.6925 7.21525 23.5085 6.94248 23.2756 6.7132C23.0428 6.48392 22.7658 6.30275 22.4608 6.1803C22.1559 6.05785 21.8292 5.9966 21.4999 6.00015ZM21.8749 10.1847L14.375 15.723C14.2668 15.8029 14.1352 15.8461 14 15.8461C13.8648 15.8461 13.7332 15.8029 13.625 15.723L6.12512 10.1847C5.99251 10.0868 5.90484 9.94098 5.8814 9.77941C5.85796 9.61785 5.90066 9.45373 6.00012 9.32316C6.09957 9.1926 6.24763 9.10628 6.41172 9.0832C6.57582 9.06012 6.7425 9.10216 6.8751 9.20009L14 14.4615L21.1249 9.20009C21.1906 9.1516 21.2653 9.11632 21.3448 9.09627C21.4243 9.07621 21.507 9.07177 21.5883 9.0832C21.6695 9.09463 21.7477 9.1217 21.8183 9.16287C21.8889 9.20405 21.9506 9.25851 21.9999 9.32316C22.0491 9.38781 22.085 9.46138 22.1053 9.53966C22.1257 9.61795 22.1302 9.69941 22.1186 9.77941C22.107 9.85941 22.0795 9.93638 22.0377 10.0059C21.9959 10.0755 21.9405 10.1362 21.8749 10.1847Z" fill="white"/>
</svg>
