<svg width="44" height="46" viewBox="0 0 44 46" fill="none" xmlns="http://www.w3.org/2000/svg">
<g filter="url(#filter0_dddd_1792_12273)">
<rect x="2" y="1" width="40" height="40" rx="20" fill="#FEFEFE"/>
<path d="M32.4998 10.3H11.5001C11.0391 10.295 10.5817 10.3808 10.1548 10.5522C9.72793 10.7236 9.34009 10.9773 9.01408 11.2983C8.68808 11.6193 8.43047 12.0011 8.25636 12.4215C8.08226 12.8418 7.99517 13.2922 8.00021 13.7461V29.2535C7.99517 29.7074 8.08226 30.1578 8.25636 30.5781C8.43047 30.9985 8.68808 31.3803 9.01408 31.7013C9.34009 32.0223 9.72793 32.276 10.1548 32.4473C10.5817 32.6187 11.0391 32.7045 11.5001 32.6996H32.4998C32.9608 32.7045 33.4182 32.6187 33.8451 32.4473C34.2721 32.276 34.6599 32.0223 34.9858 31.7013C35.3118 31.3803 35.5694 30.9985 35.7436 30.5781C35.9176 30.1578 36.0048 29.7074 35.9998 29.2535V13.7461C36.0048 13.2922 35.9176 12.8418 35.7436 12.4215C35.5694 12.0011 35.3118 11.6193 34.9858 11.2983C34.6599 10.9773 34.2721 10.7236 33.8451 10.5522C33.4182 10.3808 32.9608 10.295 32.4998 10.3ZM33.0248 16.1584L22.525 23.912C22.3735 24.0238 22.1892 24.0843 22 24.0843C21.8107 24.0843 21.6264 24.0238 21.475 23.912L10.9752 16.1584C10.7895 16.0213 10.6668 15.8172 10.634 15.591C10.6011 15.3648 10.6609 15.135 10.8002 14.9522C10.9394 14.7694 11.1467 14.6486 11.3764 14.6163C11.6061 14.584 11.8395 14.6428 12.0251 14.7799L22 22.1459L31.9748 14.7799C32.0668 14.712 32.1714 14.6626 32.2827 14.6346C32.394 14.6065 32.5097 14.6003 32.6236 14.6163C32.7372 14.6323 32.8467 14.6702 32.9456 14.7278C33.0444 14.7855 33.1308 14.8617 33.1998 14.9522C33.2687 15.0427 33.3189 15.1457 33.3474 15.2553C33.3759 15.3649 33.3822 15.479 33.366 15.591C33.3497 15.703 33.3112 15.8107 33.2527 15.908C33.1942 16.0055 33.1166 16.0905 33.0248 16.1584Z" fill="#B80022"/>
</g>
<defs>
<filter id="filter0_dddd_1792_12273" x="0" y="0" width="44" height="46" filterUnits="userSpaceOnUse" color-interpolation-filters="sRGB">
<feFlood flood-opacity="0" result="BackgroundImageFix"/>
<feColorMatrix in="SourceAlpha" type="matrix" values="0 0 0 0 0 0 0 0 0 0 0 0 0 0 0 0 0 0 127 0" result="hardAlpha"/>
<feOffset/>
<feGaussianBlur stdDeviation="0.5"/>
<feColorMatrix type="matrix" values="0 0 0 0 0 0 0 0 0 0 0 0 0 0 0 0 0 0 0.04 0"/>
<feBlend mode="normal" in2="BackgroundImageFix" result="effect1_dropShadow_1792_12273"/>
<feColorMatrix in="SourceAlpha" type="matrix" values="0 0 0 0 0 0 0 0 0 0 0 0 0 0 0 0 0 0 127 0" result="hardAlpha"/>
<feOffset dy="1"/>
<feGaussianBlur stdDeviation="0.5"/>
<feColorMatrix type="matrix" values="0 0 0 0 0 0 0 0 0 0 0 0 0 0 0 0 0 0 0.03 0"/>
<feBlend mode="normal" in2="effect1_dropShadow_1792_12273" result="effect2_dropShadow_1792_12273"/>
<feColorMatrix in="SourceAlpha" type="matrix" values="0 0 0 0 0 0 0 0 0 0 0 0 0 0 0 0 0 0 127 0" result="hardAlpha"/>
<feOffset dy="2"/>
<feGaussianBlur stdDeviation="1"/>
<feColorMatrix type="matrix" values="0 0 0 0 0 0 0 0 0 0 0 0 0 0 0 0 0 0 0.02 0"/>
<feBlend mode="normal" in2="effect2_dropShadow_1792_12273" result="effect3_dropShadow_1792_12273"/>
<feColorMatrix in="SourceAlpha" type="matrix" values="0 0 0 0 0 0 0 0 0 0 0 0 0 0 0 0 0 0 127 0" result="hardAlpha"/>
<feOffset dy="3"/>
<feGaussianBlur stdDeviation="1"/>
<feColorMatrix type="matrix" values="0 0 0 0 0 0 0 0 0 0 0 0 0 0 0 0 0 0 0.01 0"/>
<feBlend mode="normal" in2="effect3_dropShadow_1792_12273" result="effect4_dropShadow_1792_12273"/>
<feBlend mode="normal" in="SourceGraphic" in2="effect4_dropShadow_1792_12273" result="shape"/>
</filter>
</defs>
</svg>
