<svg width="32" height="32" viewBox="0 0 32 32" fill="none" xmlns="http://www.w3.org/2000/svg">
<path fill-rule="evenodd" clip-rule="evenodd" d="M16 3.73438C8.95837 3.73438 3.5 8.89238 3.5 15.8594C3.5 19.5036 4.9935 22.6526 7.4257 24.8276C7.62988 25.0104 7.75312 25.2664 7.7615 25.5404L7.82958 27.7639C7.85133 28.4731 8.58393 28.9346 9.23293 28.6481L11.714 27.5529C11.9243 27.4601 12.16 27.4429 12.3816 27.5039C13.5218 27.8174 14.7352 27.9844 16 27.9844C23.0416 27.9844 28.5 22.8264 28.5 15.8594C28.5 8.89238 23.0416 3.73438 16 3.73438Z" fill="#1877F2"/>
<path fill-rule="evenodd" clip-rule="evenodd" d="M8.49378 19.4053L12.1657 13.5798C12.7497 12.653 14.0005 12.4223 14.8769 13.0795L17.7973 15.2698C18.0652 15.4708 18.4339 15.4698 18.7007 15.2673L22.6449 12.2739C23.1714 11.8744 23.8585 12.5044 23.5062 13.0635L19.8344 18.889C19.2502 19.8157 17.9995 20.0465 17.1232 19.3892L14.2027 17.1988C13.9347 16.9979 13.566 16.999 13.2992 17.2015L9.35503 20.1948C8.8286 20.5943 8.1414 19.9643 8.49378 19.4053Z" fill="#FEFEFE"/>
</svg>
