<svg width="40" height="40" viewBox="0 0 40 40" fill="none" xmlns="http://www.w3.org/2000/svg">
<path d="M25.2079 6.62988H16.1742C14.6384 6.62988 13.3335 7.88214 13.3335 9.41752V30.5857C13.3335 32.1211 14.6108 33.3701 16.1466 33.3701L25.1951 33.3604C26.7307 33.3604 27.987 32.1111 27.987 30.5755L28.0002 9.41603C28 7.87513 26.7498 6.62988 25.2079 6.62988ZM19.386 8.30119H22.0069C22.2371 8.30119 22.4247 8.48809 22.4247 8.71896C22.4247 8.94983 22.2371 9.13674 22.0069 9.13674H19.386C19.1551 9.13674 18.9682 8.94983 18.9682 8.71896C18.9682 8.48809 19.1551 8.30119 19.386 8.30119ZM17.8111 8.43415C17.966 8.27952 18.2478 8.2774 18.4024 8.43415C18.4799 8.51146 18.5258 8.61999 18.5258 8.73086C18.5258 8.8396 18.4799 8.94792 18.4024 9.02544C18.3253 9.10297 18.2164 9.14863 18.1078 9.14863C17.9972 9.14863 17.8908 9.10297 17.8111 9.02544C17.734 8.94813 17.6901 8.8396 17.6901 8.73086C17.6899 8.61999 17.734 8.51146 17.8111 8.43415ZM20.6121 32.542C19.9227 32.542 19.362 31.9809 19.362 31.2917C19.362 30.6023 19.9227 30.0413 20.6121 30.0413C21.3016 30.0413 21.8623 30.6023 21.8623 31.2917C21.8623 31.9809 21.3013 32.542 20.6121 32.542ZM26.7033 29.1916H14.7958V10.5993H26.7033V29.1916Z" fill="#B80022"/>
</svg>
