<svg width="44" height="46" viewBox="0 0 44 46" fill="none" xmlns="http://www.w3.org/2000/svg">
<g filter="url(#filter0_dddd_1792_12278)">
<rect x="2" y="1" width="40" height="40" rx="20" fill="#FEFEFE"/>
<path d="M27.2079 7.62988H18.1742C16.6384 7.62988 15.3335 8.88214 15.3335 10.4175V31.5857C15.3335 33.1211 16.6108 34.3701 18.1466 34.3701L27.1951 34.3604C28.7307 34.3604 29.987 33.1111 29.987 31.5755L30.0002 10.416C30 8.87513 28.7498 7.62988 27.2079 7.62988ZM21.386 9.30119H24.0069C24.2371 9.30119 24.4247 9.48809 24.4247 9.71896C24.4247 9.94983 24.2371 10.1367 24.0069 10.1367H21.386C21.1551 10.1367 20.9682 9.94983 20.9682 9.71896C20.9682 9.48809 21.1551 9.30119 21.386 9.30119ZM19.8111 9.43415C19.966 9.27952 20.2478 9.2774 20.4024 9.43415C20.4799 9.51146 20.5258 9.61999 20.5258 9.73086C20.5258 9.8396 20.4799 9.94792 20.4024 10.0254C20.3253 10.103 20.2164 10.1486 20.1078 10.1486C19.9972 10.1486 19.8908 10.103 19.8111 10.0254C19.734 9.94813 19.6901 9.8396 19.6901 9.73086C19.6899 9.61999 19.734 9.51146 19.8111 9.43415ZM22.6121 33.542C21.9227 33.542 21.362 32.9809 21.362 32.2917C21.362 31.6023 21.9227 31.0413 22.6121 31.0413C23.3016 31.0413 23.8623 31.6023 23.8623 32.2917C23.8623 32.9809 23.3013 33.542 22.6121 33.542ZM28.7033 30.1916H16.7958V11.5993H28.7033V30.1916Z" fill="#B80022"/>
</g>
<defs>
<filter id="filter0_dddd_1792_12278" x="0" y="0" width="44" height="46" filterUnits="userSpaceOnUse" color-interpolation-filters="sRGB">
<feFlood flood-opacity="0" result="BackgroundImageFix"/>
<feColorMatrix in="SourceAlpha" type="matrix" values="0 0 0 0 0 0 0 0 0 0 0 0 0 0 0 0 0 0 127 0" result="hardAlpha"/>
<feOffset/>
<feGaussianBlur stdDeviation="0.5"/>
<feColorMatrix type="matrix" values="0 0 0 0 0 0 0 0 0 0 0 0 0 0 0 0 0 0 0.04 0"/>
<feBlend mode="normal" in2="BackgroundImageFix" result="effect1_dropShadow_1792_12278"/>
<feColorMatrix in="SourceAlpha" type="matrix" values="0 0 0 0 0 0 0 0 0 0 0 0 0 0 0 0 0 0 127 0" result="hardAlpha"/>
<feOffset dy="1"/>
<feGaussianBlur stdDeviation="0.5"/>
<feColorMatrix type="matrix" values="0 0 0 0 0 0 0 0 0 0 0 0 0 0 0 0 0 0 0.03 0"/>
<feBlend mode="normal" in2="effect1_dropShadow_1792_12278" result="effect2_dropShadow_1792_12278"/>
<feColorMatrix in="SourceAlpha" type="matrix" values="0 0 0 0 0 0 0 0 0 0 0 0 0 0 0 0 0 0 127 0" result="hardAlpha"/>
<feOffset dy="2"/>
<feGaussianBlur stdDeviation="1"/>
<feColorMatrix type="matrix" values="0 0 0 0 0 0 0 0 0 0 0 0 0 0 0 0 0 0 0.02 0"/>
<feBlend mode="normal" in2="effect2_dropShadow_1792_12278" result="effect3_dropShadow_1792_12278"/>
<feColorMatrix in="SourceAlpha" type="matrix" values="0 0 0 0 0 0 0 0 0 0 0 0 0 0 0 0 0 0 127 0" result="hardAlpha"/>
<feOffset dy="3"/>
<feGaussianBlur stdDeviation="1"/>
<feColorMatrix type="matrix" values="0 0 0 0 0 0 0 0 0 0 0 0 0 0 0 0 0 0 0.01 0"/>
<feBlend mode="normal" in2="effect3_dropShadow_1792_12278" result="effect4_dropShadow_1792_12278"/>
<feBlend mode="normal" in="SourceGraphic" in2="effect4_dropShadow_1792_12278" result="shape"/>
</filter>
</defs>
</svg>
