<svg width="1760" height="139" viewBox="0 0 1760 139" fill="none" xmlns="http://www.w3.org/2000/svg">
<path d="M0 101.5L128 102V0H0L39.8444 51L0 101.5Z" fill="#F5002D"/>
<path d="M81.0086 28.996L128 0.000994063L128.009 29.0116L81.0086 28.996Z" fill="#222222" fill-opacity="0.5"/>
<path d="M1760 101.5L1632 102V0H1760L1720.16 51L1760 101.5Z" fill="#F5002D"/>
<path d="M1678.99 28.996L1632 0.000994063L1631.99 29.0116L1678.99 28.996Z" fill="#222222" fill-opacity="0.5"/>
<rect width="1598" height="110" transform="translate(81 29)" fill="#B80022"/>
<path d="M565.035 94.271L562.171 71.5484C562.016 70.2839 561.693 69.4065 561.203 68.9161C560.738 68.4 559.99 68.129 558.958 68.1032L559.384 66.5935C560.029 66.6194 560.867 66.6452 561.9 66.671C562.958 66.6968 564.145 66.7097 565.461 66.7097C567.087 66.7097 568.493 66.6968 569.68 66.671C570.867 66.6452 571.797 66.6194 572.467 66.5935L572.042 68.1032C570.855 68.1032 569.938 68.2065 569.293 68.4129C568.674 68.6194 568.274 68.9548 568.093 69.4194C567.913 69.8839 567.861 70.529 567.938 71.3548L569.913 87.5742L568.209 88.9677L577.229 74.6839C578.209 73.1613 578.816 71.9226 579.048 70.9677C579.306 70.0129 579.151 69.3032 578.584 68.8387C578.016 68.3742 576.984 68.129 575.487 68.1032L575.913 66.5935C577.074 66.6194 578.197 66.6452 579.28 66.671C580.364 66.6968 581.409 66.7097 582.416 66.7097C583.216 66.7097 584.003 66.6968 584.777 66.671C585.551 66.6452 586.364 66.6194 587.216 66.5935L586.79 68.1032C585.861 68.1806 585.009 68.3871 584.235 68.7226C583.461 69.0581 582.713 69.6 581.99 70.3484C581.267 71.071 580.506 72.0516 579.706 73.2903L566.429 94.271H565.035ZM550.48 94.271L547.538 71.5484C547.384 70.2839 546.997 69.4065 546.377 68.9161C545.784 68.4 544.816 68.129 543.474 68.1032L543.9 66.5935C544.597 66.6194 545.487 66.6452 546.571 66.671C547.655 66.6968 548.893 66.7097 550.287 66.7097C551.887 66.7097 553.255 66.6968 554.39 66.671C555.551 66.6452 556.455 66.6194 557.1 66.5935L556.713 68.1032C555.706 68.129 554.945 68.2452 554.429 68.4516C553.913 68.6581 553.577 68.9935 553.422 69.4581C553.267 69.9226 553.229 70.5548 553.306 71.3548L555.319 87.7677L553.577 89.2774L564.609 71.8968L564.958 73.9097L551.874 94.271H550.48ZM588.759 94.5419C586.463 94.5419 584.656 93.871 583.34 92.529C582.05 91.1613 581.405 89.2645 581.405 86.8387C581.405 85.0581 581.74 83.3677 582.411 81.7677C583.082 80.1419 583.998 78.7097 585.159 77.471C586.347 76.2065 587.701 75.2258 589.224 74.529C590.747 73.8065 592.347 73.4452 594.024 73.4452C595.701 73.4452 596.979 73.7935 597.856 74.4903C598.759 75.1613 599.211 76.1419 599.211 77.4323C599.211 78.8 598.682 80.1032 597.624 81.3419C596.592 82.5806 595.121 83.6903 593.211 84.671C591.327 85.6258 589.108 86.3742 586.553 86.9161V85.6774C588.334 85.0581 589.843 84.3097 591.082 83.4323C592.321 82.529 593.263 81.5355 593.908 80.4516C594.553 79.3677 594.876 78.2581 594.876 77.1226C594.876 76.3742 594.747 75.8194 594.488 75.4581C594.23 75.0968 593.856 74.9161 593.366 74.9161C592.617 74.9161 591.856 75.2516 591.082 75.9226C590.334 76.5935 589.65 77.4968 589.03 78.6323C588.411 79.7419 587.908 80.9677 587.521 82.3097C587.134 83.6516 586.94 84.9935 586.94 86.3355C586.94 88.1677 587.276 89.5742 587.947 90.5548C588.643 91.5097 589.637 91.9871 590.927 91.9871C591.985 91.9871 592.927 91.7032 593.753 91.1355C594.605 90.5419 595.366 89.6645 596.037 88.5032H597.508C596.527 90.4903 595.301 92 593.83 93.0323C592.385 94.0387 590.695 94.5419 588.759 94.5419ZM608.329 102.942L608.755 101.432C609.684 101.406 610.458 101.29 611.077 101.084C611.671 100.903 612.148 100.606 612.51 100.194C612.871 99.8065 613.142 99.2645 613.323 98.5677L618.742 79.2129C619.052 78.1032 619.09 77.2645 618.858 76.6968C618.626 76.129 618.174 75.8452 617.503 75.8452C616.961 75.8452 616.432 76.0516 615.916 76.4645C615.426 76.8774 614.961 77.5226 614.523 78.4L613.787 79.7548H612.277L613.168 78.0903C613.684 77.1097 614.252 76.271 614.871 75.5742C615.516 74.8774 616.239 74.3484 617.039 73.9871C617.839 73.6258 618.716 73.4452 619.671 73.4452C621.555 73.4452 622.871 74.0645 623.619 75.3032C624.393 76.5419 624.471 78.2581 623.852 80.4516L618.858 98.2581C618.652 99.0065 618.664 99.6 618.897 100.039C619.129 100.503 619.606 100.839 620.329 101.045C621.077 101.277 622.11 101.406 623.426 101.432L623.039 102.942C622.497 102.916 621.813 102.89 620.987 102.865C620.161 102.865 619.271 102.852 618.316 102.826C617.387 102.8 616.445 102.787 615.49 102.787C614.097 102.787 612.755 102.8 611.464 102.826C610.148 102.877 609.103 102.916 608.329 102.942ZM625.245 94.5419C624.11 94.5419 623.103 94.2839 622.226 93.7677C621.374 93.2516 620.768 92.5419 620.406 91.6387L620.871 90.4C621.206 90.9935 621.658 91.4581 622.226 91.7935C622.819 92.129 623.452 92.2968 624.123 92.2968C624.974 92.2968 625.787 92.0129 626.561 91.4452C627.361 90.8516 628.071 90.0516 628.69 89.0452C629.31 88.0387 629.787 86.8903 630.123 85.6C630.484 84.2839 630.664 82.9161 630.664 81.4968C630.664 79.7935 630.381 78.4903 629.813 77.5871C629.271 76.6839 628.484 76.2323 627.452 76.2323C626.755 76.2323 626.097 76.4516 625.477 76.8903C624.858 77.3032 624.303 77.9355 623.813 78.7871L623.464 78.2065C624.213 76.6581 625.129 75.4839 626.213 74.6839C627.323 73.8581 628.587 73.4452 630.006 73.4452C631.916 73.4452 633.426 74.129 634.535 75.4968C635.645 76.8387 636.2 78.671 636.2 80.9935C636.2 82.7484 635.89 84.4387 635.271 86.0645C634.677 87.6645 633.864 89.1097 632.832 90.4C631.8 91.6903 630.626 92.7097 629.31 93.4581C628.019 94.1806 626.664 94.5419 625.245 94.5419ZM640.944 94L645.086 79.2129C645.395 78.129 645.434 77.3032 645.202 76.7355C644.995 76.1419 644.544 75.8452 643.847 75.8452C643.305 75.8452 642.776 76.0645 642.26 76.5032C641.77 76.9161 641.305 77.5484 640.866 78.4L640.131 79.7548H638.621L639.511 78.0903C640.028 77.1097 640.595 76.271 641.215 75.5742C641.86 74.8774 642.582 74.3484 643.382 73.9871C644.182 73.6258 645.06 73.4452 646.015 73.4452C647.305 73.4452 648.324 73.7419 649.073 74.3355C649.821 74.9032 650.286 75.7161 650.466 76.7742C650.673 77.8065 650.582 79.0323 650.195 80.4516L646.402 94H640.944ZM655.731 81.729C655.189 81.729 654.763 81.5742 654.453 81.2645C654.144 80.9548 653.989 80.5548 653.989 80.0645C653.989 79.5742 654.092 79.1226 654.299 78.7097C654.531 78.271 654.75 77.8581 654.957 77.471C655.189 77.0839 655.305 76.7226 655.305 76.3871C655.305 75.8968 654.97 75.6516 654.299 75.6516C653.628 75.6516 652.918 75.9226 652.17 76.4645C651.421 76.9806 650.789 77.6774 650.273 78.5548L649.963 77.6645C650.737 76.3226 651.666 75.2903 652.75 74.5677C653.834 73.8194 654.995 73.4452 656.234 73.4452C657.318 73.4452 658.157 73.729 658.75 74.2968C659.344 74.8645 659.64 75.6645 659.64 76.6968C659.64 77.5742 659.447 78.4 659.06 79.1742C658.699 79.9226 658.221 80.5419 657.628 81.0323C657.06 81.4968 656.428 81.729 655.731 81.729ZM669.156 94.5419C666.782 94.5419 664.937 93.8581 663.621 92.4903C662.33 91.0968 661.685 89.1484 661.685 86.6452C661.685 84.8645 661.995 83.1871 662.614 81.6129C663.259 80.0129 664.15 78.6065 665.285 77.3935C666.421 76.1548 667.724 75.1871 669.195 74.4903C670.666 73.7935 672.24 73.4452 673.917 73.4452C676.292 73.4452 678.137 74.1419 679.453 75.5355C680.769 76.929 681.427 78.8774 681.427 81.3806C681.427 83.1613 681.104 84.8516 680.459 86.4516C679.814 88.0258 678.924 89.4194 677.788 90.6323C676.653 91.8452 675.35 92.8 673.879 93.4968C672.408 94.1935 670.834 94.5419 669.156 94.5419ZM669.466 93.0323C670.111 93.0323 670.743 92.7871 671.363 92.2968C672.008 91.7806 672.601 91.0839 673.143 90.2065C673.711 89.329 674.214 88.3355 674.653 87.2258C675.092 86.0903 675.427 84.8903 675.659 83.6258C675.892 82.3355 676.008 81.0452 676.008 79.7548C676.008 78.1806 675.801 76.9935 675.388 76.1935C675.001 75.3677 674.408 74.9548 673.608 74.9548C672.963 74.9548 672.317 75.2129 671.672 75.729C671.053 76.2194 670.459 76.9032 669.892 77.7806C669.35 78.6581 668.859 79.6645 668.421 80.8C668.008 81.9355 667.672 83.1484 667.414 84.4387C667.182 85.7032 667.066 86.9677 667.066 88.2323C667.066 89.8323 667.272 91.0323 667.685 91.8323C668.098 92.6323 668.692 93.0323 669.466 93.0323ZM702.145 94.5419C700.855 94.5419 699.835 94.2581 699.087 93.6903C698.338 93.0968 697.861 92.271 697.655 91.2129C697.474 90.1548 697.577 88.9419 697.964 87.5742L702.88 69.9613C703.164 69.0065 703.255 68.271 703.151 67.7548C703.048 67.2387 702.7 66.8774 702.106 66.671C701.538 66.4645 700.648 66.3484 699.435 66.3226L699.9 64.8129C702.042 64.7871 703.951 64.6452 705.629 64.3871C707.306 64.129 708.842 63.7419 710.235 63.2258L703.074 88.8129C702.764 89.8452 702.713 90.6581 702.919 91.2516C703.126 91.8452 703.577 92.1419 704.274 92.1419C704.842 92.1419 705.371 91.9355 705.861 91.5226C706.377 91.1097 706.855 90.4774 707.293 89.6258L708.029 88.271H709.538L708.648 89.8968C708.132 90.8774 707.551 91.7161 706.906 92.4129C706.287 93.1097 705.577 93.6387 704.777 94C704.003 94.3613 703.126 94.5419 702.145 94.5419ZM691.848 94.5419C689.913 94.5419 688.39 93.8839 687.28 92.5677C686.171 91.2258 685.616 89.3935 685.616 87.071C685.616 85.2645 685.938 83.5484 686.584 81.9226C687.229 80.2968 688.093 78.8516 689.177 77.5871C690.287 76.2968 691.551 75.2903 692.971 74.5677C694.416 73.8194 695.913 73.4452 697.461 73.4452C698.751 73.4452 699.977 73.7161 701.138 74.2581C702.3 74.8 703.371 75.5871 704.351 76.6194L700.635 78.9806C700.558 77.7161 700.248 76.7355 699.706 76.0387C699.19 75.3161 698.519 74.9548 697.693 74.9548C696.867 74.9548 696.055 75.2774 695.255 75.9226C694.48 76.5677 693.784 77.4452 693.164 78.5548C692.545 79.6387 692.055 80.8774 691.693 82.271C691.332 83.6387 691.151 85.0581 691.151 86.529C691.151 88.2323 691.422 89.5355 691.964 90.4387C692.532 91.3419 693.319 91.7935 694.326 91.7935C695.048 91.7935 695.706 91.5871 696.3 91.1742C696.919 90.7355 697.487 90.0774 698.003 89.2L698.351 89.7806C697.603 91.3806 696.687 92.5806 695.603 93.3806C694.545 94.1548 693.293 94.5419 691.848 94.5419ZM718.416 94.5419C717.074 94.5419 715.99 94.2194 715.164 93.5742C714.364 92.929 713.848 92.0258 713.616 90.8645C713.383 89.7032 713.487 88.3355 713.925 86.7613L716.054 79.2129C716.364 78.129 716.416 77.3032 716.209 76.7355C716.003 76.1419 715.538 75.8452 714.816 75.8452C714.248 75.8452 713.719 76.0645 713.229 76.5032C712.738 76.9161 712.261 77.5484 711.796 78.4L711.1 79.7548H709.59L710.441 78.0903C710.983 77.1097 711.564 76.2839 712.183 75.6129C712.829 74.9161 713.538 74.3871 714.312 74.0258C715.112 73.6645 716.003 73.4839 716.983 73.4839C718.274 73.4839 719.293 73.7677 720.041 74.3355C720.79 74.9032 721.254 75.7161 721.435 76.7742C721.641 77.8065 721.538 79.0323 721.125 80.4516L719.112 87.729C718.725 89.1742 718.674 90.271 718.958 91.0194C719.267 91.7677 719.9 92.1419 720.854 92.1419C721.654 92.1419 722.377 91.8968 723.022 91.4065C723.693 90.9161 724.287 90.1935 724.803 89.2387L725.151 90.0516C724.325 91.5484 723.345 92.671 722.209 93.4194C721.1 94.1677 719.835 94.5419 718.416 94.5419ZM729.022 94.5419C727.732 94.5419 726.712 94.2581 725.964 93.6903C725.216 93.0968 724.738 92.2839 724.532 91.2516C724.351 90.1935 724.454 88.9677 724.841 87.5742L728.635 73.9871H734.093L729.951 88.8129C729.641 89.871 729.59 90.6968 729.796 91.2903C730.029 91.8581 730.493 92.1419 731.19 92.1419C731.732 92.1419 732.248 91.9355 732.738 91.5226C733.254 91.1097 733.732 90.4774 734.171 89.6258L734.906 88.271H736.416L735.525 89.8968C735.009 90.8774 734.429 91.7161 733.783 92.4129C733.164 93.1097 732.454 93.6387 731.654 94C730.88 94.3613 730.003 94.5419 729.022 94.5419ZM745.995 94.5419C743.724 94.5419 741.943 93.8581 740.653 92.4903C739.362 91.1226 738.717 89.2258 738.717 86.8C738.717 85.0194 739.053 83.329 739.724 81.729C740.395 80.129 741.311 78.7097 742.472 77.471C743.633 76.2323 744.962 75.2516 746.459 74.529C747.982 73.8065 749.582 73.4452 751.259 73.4452C752.911 73.4452 754.214 73.8065 755.169 74.529C756.149 75.2258 756.64 76.1806 756.64 77.3935C756.64 78.1935 756.433 78.9419 756.02 79.6387C755.607 80.3355 755.078 80.9032 754.433 81.3419C753.788 81.7806 753.078 82 752.304 82C751.685 82 751.195 81.8581 750.833 81.5742C750.498 81.2645 750.33 80.8516 750.33 80.3355C750.33 79.8452 750.472 79.4065 750.756 79.0194C751.065 78.6323 751.414 78.2839 751.801 77.9742C752.188 77.6387 752.524 77.3161 752.807 77.0065C753.117 76.671 753.272 76.2968 753.272 75.8839C753.272 75.2645 752.82 74.9548 751.917 74.9548C750.936 74.9548 749.982 75.2774 749.053 75.9226C748.149 76.5419 747.336 77.3935 746.614 78.4774C745.891 79.5613 745.311 80.7871 744.872 82.1548C744.459 83.5226 744.253 84.9161 744.253 86.3355C744.253 88.1419 744.575 89.5355 745.22 90.5161C745.891 91.4968 746.872 91.9871 748.162 91.9871C749.195 91.9871 750.111 91.7032 750.911 91.1355C751.736 90.5677 752.485 89.6903 753.156 88.5032H754.627C753.646 90.4903 752.433 92 750.988 93.0323C749.569 94.0387 747.904 94.5419 745.995 94.5419ZM766.697 94.5419C764.4 94.5419 762.594 93.871 761.278 92.529C759.987 91.1613 759.342 89.2645 759.342 86.8387C759.342 85.0581 759.678 83.3677 760.349 81.7677C761.02 80.1419 761.936 78.7097 763.097 77.471C764.284 76.2065 765.639 75.2258 767.161 74.529C768.684 73.8065 770.284 73.4452 771.961 73.4452C773.639 73.4452 774.916 73.7935 775.794 74.4903C776.697 75.1613 777.149 76.1419 777.149 77.4323C777.149 78.8 776.62 80.1032 775.561 81.3419C774.529 82.5806 773.058 83.6903 771.149 84.671C769.265 85.6258 767.045 86.3742 764.49 86.9161V85.6774C766.271 85.0581 767.781 84.3097 769.02 83.4323C770.258 82.529 771.2 81.5355 771.845 80.4516C772.49 79.3677 772.813 78.2581 772.813 77.1226C772.813 76.3742 772.684 75.8194 772.426 75.4581C772.168 75.0968 771.794 74.9161 771.303 74.9161C770.555 74.9161 769.794 75.2516 769.02 75.9226C768.271 76.5935 767.587 77.4968 766.968 78.6323C766.349 79.7419 765.845 80.9677 765.458 82.3097C765.071 83.6516 764.878 84.9935 764.878 86.3355C764.878 88.1677 765.213 89.5742 765.884 90.5548C766.581 91.5097 767.574 91.9871 768.865 91.9871C769.923 91.9871 770.865 91.7032 771.69 91.1355C772.542 90.5419 773.303 89.6645 773.974 88.5032H775.445C774.465 90.4903 773.239 92 771.768 93.0323C770.323 94.0387 768.632 94.5419 766.697 94.5419ZM804.808 94.5419C802.047 94.5419 799.66 94.129 797.647 93.3032C795.66 92.4774 794.125 91.2903 793.041 89.7419C791.983 88.1935 791.454 86.3613 791.454 84.2452C791.454 82.2065 791.918 80.3742 792.847 78.7484C793.802 77.1226 795.079 75.8323 796.679 74.8774C798.305 73.9226 800.125 73.4452 802.137 73.4452C803.763 73.4452 805.041 73.7548 805.97 74.3742C806.925 74.9935 807.402 75.8194 807.402 76.8516C807.402 77.6 807.118 78.3742 806.55 79.1742C805.983 79.9742 805.054 80.8903 803.763 81.9226L803.183 81.6516C804.731 80.8 806.112 79.9613 807.325 79.1355C808.537 78.3097 809.57 77.5226 810.421 76.7742C811.273 76 811.918 75.2774 812.357 74.6065C812.821 73.9355 813.054 73.329 813.054 72.7871C813.054 72.2452 812.899 71.7548 812.589 71.3161C812.305 70.8516 812.008 70.4 811.699 69.9613C811.415 69.4968 811.273 69.0065 811.273 68.4903C811.273 67.871 811.492 67.3806 811.931 67.0194C812.37 66.6323 812.925 66.4387 813.596 66.4387C814.473 66.4387 815.183 66.7355 815.725 67.329C816.266 67.9226 816.537 68.6968 816.537 69.6516C816.537 70.7871 816.112 72.0129 815.26 73.329C814.434 74.6452 813.26 75.9871 811.737 77.3548C810.215 78.7226 808.421 80.0516 806.357 81.3419C804.318 82.6323 802.073 83.8194 799.621 84.9032L798.963 83.5097C800.331 82.7613 801.415 81.8323 802.215 80.7226C803.041 79.5871 803.454 78.4 803.454 77.1613C803.454 76.4387 803.299 75.8839 802.989 75.4968C802.705 75.1097 802.279 74.9161 801.712 74.9161C800.886 74.9161 800.099 75.2903 799.35 76.0387C798.628 76.7871 798.034 77.7677 797.57 78.9806C797.131 80.1935 796.912 81.4968 796.912 82.8903C796.912 85.6 797.802 87.729 799.583 89.2774C801.389 90.8 803.879 91.5613 807.054 91.5613C810.434 91.5613 813.286 90.6581 815.608 88.8516C817.931 87.0452 819.725 84.3484 820.989 80.7613L822.344 80.9935C820.821 85.5613 818.615 88.9677 815.725 91.2129C812.834 93.4323 809.196 94.5419 804.808 94.5419ZM812.434 88C811.583 88 810.886 87.6903 810.344 87.071C809.828 86.4516 809.57 85.6516 809.57 84.671C809.57 83.7161 809.802 82.8129 810.266 81.9613C810.757 81.1097 811.402 80.3613 812.202 79.7161C813.028 79.0452 813.97 78.529 815.028 78.1677C816.086 77.8065 817.221 77.6258 818.434 77.6258C819.518 77.6258 820.512 77.7806 821.415 78.0903C822.344 78.4 823.196 78.7613 823.97 79.1742C824.77 79.5613 825.479 79.9097 826.099 80.2194C826.744 80.529 827.312 80.6839 827.802 80.6839C828.344 80.6839 828.744 80.5032 829.002 80.1419C829.286 79.7806 829.505 79.3419 829.66 78.8258C829.815 78.2839 829.983 77.7548 830.163 77.2387C830.344 76.6968 830.602 76.2581 830.937 75.9226C831.299 75.5613 831.815 75.3806 832.486 75.3806C833.183 75.3806 833.725 75.5742 834.112 75.9613C834.499 76.3484 834.692 76.9032 834.692 77.6258C834.692 78.9419 834.047 80.0258 832.757 80.8774C831.466 81.7032 829.789 82.1161 827.725 82.1161C826.796 82.1161 825.918 82.0516 825.092 81.9226C824.266 81.7677 823.428 81.6 822.576 81.4194C821.725 81.2387 820.821 81.0839 819.866 80.9548C818.912 80.8 817.866 80.7226 816.731 80.7226C815.389 80.7226 814.331 80.8258 813.557 81.0323C812.808 81.2387 812.434 81.5355 812.434 81.9226C812.434 82.1548 812.55 82.4129 812.783 82.6968C813.015 82.9548 813.286 83.2516 813.596 83.5871C813.931 83.8968 814.215 84.2452 814.447 84.6323C814.679 85.0194 814.796 85.4452 814.796 85.9097C814.796 86.5032 814.576 87.0065 814.137 87.4194C813.699 87.8065 813.131 88 812.434 88ZM865.317 94.5419C864.026 94.5419 863.007 94.2581 862.259 93.6903C861.51 93.0968 861.033 92.271 860.826 91.2129C860.646 90.1548 860.749 88.9419 861.136 87.5742L866.052 69.9613C866.336 69.0065 866.426 68.271 866.323 67.7548C866.22 67.2387 865.872 66.8774 865.278 66.671C864.71 66.4645 863.82 66.3484 862.607 66.3226L863.072 64.8129C865.214 64.7871 867.123 64.6452 868.801 64.3871C870.478 64.129 872.014 63.7419 873.407 63.2258L866.246 88.8129C865.936 89.8452 865.885 90.6581 866.091 91.2516C866.297 91.8452 866.749 92.1419 867.446 92.1419C868.014 92.1419 868.543 91.9355 869.033 91.5226C869.549 91.1097 870.026 90.4774 870.465 89.6258L871.201 88.271H872.71L871.82 89.8968C871.304 90.8774 870.723 91.7161 870.078 92.4129C869.459 93.1097 868.749 93.6387 867.949 94C867.175 94.3613 866.297 94.5419 865.317 94.5419ZM855.02 94.5419C853.085 94.5419 851.562 93.8839 850.452 92.5677C849.343 91.2258 848.788 89.3935 848.788 87.071C848.788 85.2645 849.11 83.5484 849.755 81.9226C850.401 80.2968 851.265 78.8516 852.349 77.5871C853.459 76.2968 854.723 75.2903 856.143 74.5677C857.588 73.8194 859.085 73.4452 860.633 73.4452C861.923 73.4452 863.149 73.7161 864.31 74.2581C865.472 74.8 866.543 75.5871 867.523 76.6194L863.807 78.9806C863.73 77.7161 863.42 76.7355 862.878 76.0387C862.362 75.3161 861.691 74.9548 860.865 74.9548C860.039 74.9548 859.226 75.2774 858.426 75.9226C857.652 76.5677 856.955 77.4452 856.336 78.5548C855.717 79.6387 855.226 80.8774 854.865 82.271C854.504 83.6387 854.323 85.0581 854.323 86.529C854.323 88.2323 854.594 89.5355 855.136 90.4387C855.704 91.3419 856.491 91.7935 857.497 91.7935C858.22 91.7935 858.878 91.5871 859.472 91.1742C860.091 90.7355 860.659 90.0774 861.175 89.2L861.523 89.7806C860.775 91.3806 859.859 92.5806 858.775 93.3806C857.717 94.1548 856.465 94.5419 855.02 94.5419ZM882.291 94.5419C879.994 94.5419 878.187 93.871 876.871 92.529C875.581 91.1613 874.936 89.2645 874.936 86.8387C874.936 85.0581 875.271 83.3677 875.942 81.7677C876.613 80.1419 877.529 78.7097 878.691 77.471C879.878 76.2065 881.233 75.2258 882.755 74.529C884.278 73.8065 885.878 73.4452 887.555 73.4452C889.233 73.4452 890.51 73.7935 891.387 74.4903C892.291 75.1613 892.742 76.1419 892.742 77.4323C892.742 78.8 892.213 80.1032 891.155 81.3419C890.123 82.5806 888.652 83.6903 886.742 84.671C884.858 85.6258 882.639 86.3742 880.084 86.9161V85.6774C881.865 85.0581 883.375 84.3097 884.613 83.4323C885.852 82.529 886.794 81.5355 887.439 80.4516C888.084 79.3677 888.407 78.2581 888.407 77.1226C888.407 76.3742 888.278 75.8194 888.02 75.4581C887.762 75.0968 887.387 74.9161 886.897 74.9161C886.149 74.9161 885.387 75.2516 884.613 75.9226C883.865 76.5935 883.181 77.4968 882.562 78.6323C881.942 79.7419 881.439 80.9677 881.052 82.3097C880.665 83.6516 880.471 84.9935 880.471 86.3355C880.471 88.1677 880.807 89.5742 881.478 90.5548C882.175 91.5097 883.168 91.9871 884.458 91.9871C885.516 91.9871 886.458 91.7032 887.284 91.1355C888.136 90.5419 888.897 89.6645 889.568 88.5032H891.039C890.058 90.4903 888.833 92 887.362 93.0323C885.916 94.0387 884.226 94.5419 882.291 94.5419ZM900.536 94.5419C899.246 94.5419 898.213 94.2581 897.439 93.6903C896.691 93.0968 896.226 92.2839 896.046 91.2516C895.865 90.1935 895.968 88.9677 896.355 87.5742L901.271 69.9613C901.555 69.0065 901.633 68.271 901.504 67.7548C901.4 67.2387 901.039 66.8774 900.42 66.671C899.8 66.4645 898.871 66.3484 897.633 66.3226L898.059 64.8129C900.226 64.7871 902.175 64.6452 903.904 64.3871C905.633 64.129 907.207 63.7419 908.626 63.2258L901.426 88.8129C901.142 89.8452 901.104 90.6581 901.31 91.2516C901.517 91.8452 901.968 92.1419 902.665 92.1419C903.233 92.1419 903.762 91.9355 904.252 91.5226C904.768 91.1097 905.246 90.4774 905.684 89.6258L906.42 88.271H907.929L907.039 89.8968C906.523 90.8774 905.942 91.7161 905.297 92.4129C904.652 93.1097 903.942 93.6387 903.168 94C902.394 94.3613 901.517 94.5419 900.536 94.5419ZM916.766 94.5419C915.476 94.5419 914.431 94.2452 913.631 93.6516C912.857 93.0323 912.366 92.1935 912.16 91.1355C911.979 90.0774 912.134 88.8774 912.625 87.5355L915.566 79.2129C915.928 78.2065 915.992 77.3935 915.76 76.7742C915.554 76.1548 915.089 75.8452 914.366 75.8452C913.799 75.8452 913.257 76.0516 912.741 76.4645C912.25 76.8774 911.786 77.5226 911.347 78.4L910.612 79.7548H909.102L909.992 78.0903C910.844 76.4903 911.786 75.3161 912.818 74.5677C913.876 73.8194 915.102 73.4452 916.496 73.4452C917.812 73.4452 918.857 73.7548 919.631 74.3742C920.405 74.9677 920.896 75.7935 921.102 76.8516C921.308 77.8839 921.154 79.0839 920.637 80.4516L917.696 88.7742C917.334 89.7806 917.27 90.5935 917.502 91.2129C917.734 91.8323 918.199 92.1419 918.896 92.1419C920.031 92.1419 921.05 91.3032 921.954 89.6258L922.65 88.271H924.16L923.308 89.8968C922.457 91.5226 921.502 92.7097 920.444 93.4581C919.386 94.1806 918.16 94.5419 916.766 94.5419ZM919.631 70.0387C918.728 70.0387 917.979 69.7806 917.386 69.2645C916.818 68.7226 916.534 68.0258 916.534 67.1742C916.534 66.2452 916.883 65.471 917.579 64.8516C918.276 64.2065 919.115 63.8839 920.096 63.8839C920.999 63.8839 921.734 64.1548 922.302 64.6968C922.896 65.2129 923.192 65.8968 923.192 66.7484C923.192 67.6774 922.844 68.4645 922.147 69.1097C921.476 69.729 920.637 70.0387 919.631 70.0387ZM934.295 94.5419C932.515 94.5419 931.121 94.0645 930.115 93.1097C929.134 92.129 928.644 90.8 928.644 89.1226C928.644 88.1677 928.811 87.2 929.147 86.2194C929.508 85.2129 930.037 84.1548 930.734 83.0452C931.457 81.9355 932.347 80.7355 933.405 79.4452C934.489 78.129 935.74 76.671 937.16 75.071C936.644 75.2516 936.089 75.3935 935.495 75.4968C934.928 75.6 934.386 75.6516 933.87 75.6516C933.379 75.6516 932.928 75.6 932.515 75.4968C932.128 75.3935 931.792 75.2903 931.508 75.1871C931.224 75.0839 930.979 75.0323 930.773 75.0323C930.515 75.0323 930.321 75.0968 930.192 75.2258C930.089 75.3548 930.037 75.5226 930.037 75.729C930.037 75.9871 930.102 76.271 930.231 76.5806C930.386 76.8645 930.528 77.1742 930.657 77.5097C930.786 77.8194 930.85 78.1419 930.85 78.4774C930.85 79.0452 930.644 79.5226 930.231 79.9097C929.844 80.2968 929.353 80.4903 928.76 80.4903C928.192 80.4903 927.74 80.2968 927.405 79.9097C927.095 79.5226 926.94 78.9806 926.94 78.2839C926.94 77.3548 927.211 76.529 927.753 75.8065C928.295 75.0839 929.044 74.5161 929.999 74.1032C930.953 73.6645 932.063 73.4452 933.328 73.4452C934.024 73.4452 934.734 73.5097 935.457 73.6387C936.205 73.7419 936.992 73.9097 937.818 74.1419L938.437 73.0968L939.482 73.6774C938.45 75.3548 937.56 77.0065 936.811 78.6323C936.063 80.2323 935.482 81.7419 935.07 83.1613C934.682 84.5548 934.489 85.8194 934.489 86.9548C934.489 88.2968 934.76 89.3419 935.302 90.0903C935.87 90.8129 936.67 91.1742 937.702 91.1742C938.631 91.1742 939.547 90.9161 940.45 90.4C941.353 89.8839 942.166 89.2129 942.889 88.3871C943.637 87.5355 944.218 86.6065 944.631 85.6C945.07 84.5935 945.289 83.6 945.289 82.6194C945.289 81.7161 945.121 80.9677 944.786 80.3742C944.476 79.7806 944.102 79.2516 943.663 78.7871C943.25 78.2968 942.876 77.8194 942.54 77.3548C942.205 76.8903 942.037 76.3484 942.037 75.729C942.037 75.0581 942.257 74.5161 942.695 74.1032C943.134 73.6645 943.728 73.4452 944.476 73.4452C945.482 73.4452 946.244 73.8581 946.76 74.6839C947.276 75.5097 947.534 76.7742 947.534 78.4774C947.534 80.5677 947.173 82.5677 946.45 84.4774C945.728 86.3871 944.747 88.1032 943.508 89.6258C942.27 91.1484 940.85 92.3484 939.25 93.2258C937.676 94.1032 936.024 94.5419 934.295 94.5419ZM958.884 94.5419C956.588 94.5419 954.781 93.871 953.465 92.529C952.175 91.1613 951.53 89.2645 951.53 86.8387C951.53 85.0581 951.865 83.3677 952.536 81.7677C953.207 80.1419 954.123 78.7097 955.284 77.471C956.472 76.2065 957.826 75.2258 959.349 74.529C960.872 73.8065 962.472 73.4452 964.149 73.4452C965.826 73.4452 967.104 73.7935 967.981 74.4903C968.884 75.1613 969.336 76.1419 969.336 77.4323C969.336 78.8 968.807 80.1032 967.749 81.3419C966.717 82.5806 965.246 83.6903 963.336 84.671C961.452 85.6258 959.233 86.3742 956.678 86.9161V85.6774C958.459 85.0581 959.968 84.3097 961.207 83.4323C962.446 82.529 963.388 81.5355 964.033 80.4516C964.678 79.3677 965.001 78.2581 965.001 77.1226C965.001 76.3742 964.872 75.8194 964.613 75.4581C964.355 75.0968 963.981 74.9161 963.491 74.9161C962.742 74.9161 961.981 75.2516 961.207 75.9226C960.459 76.5935 959.775 77.4968 959.155 78.6323C958.536 79.7419 958.033 80.9677 957.646 82.3097C957.259 83.6516 957.065 84.9935 957.065 86.3355C957.065 88.1677 957.401 89.5742 958.072 90.5548C958.768 91.5097 959.762 91.9871 961.052 91.9871C962.11 91.9871 963.052 91.7032 963.878 91.1355C964.73 90.5419 965.491 89.6645 966.162 88.5032H967.633C966.652 90.4903 965.426 92 963.955 93.0323C962.51 94.0387 960.82 94.5419 958.884 94.5419ZM974.084 94L978.226 79.2129C978.536 78.129 978.575 77.3032 978.342 76.7355C978.136 76.1419 977.684 75.8452 976.988 75.8452C976.446 75.8452 975.917 76.0645 975.4 76.5032C974.91 76.9161 974.446 77.5484 974.007 78.4L973.271 79.7548H971.762L972.652 78.0903C973.168 77.1097 973.736 76.271 974.355 75.5742C975 74.8774 975.723 74.3484 976.523 73.9871C977.323 73.6258 978.2 73.4452 979.155 73.4452C980.446 73.4452 981.465 73.7419 982.213 74.3355C982.962 74.9032 983.426 75.7161 983.607 76.7742C983.813 77.8065 983.723 79.0323 983.336 80.4516L979.542 94H974.084ZM988.871 81.729C988.329 81.729 987.904 81.5742 987.594 81.2645C987.284 80.9548 987.129 80.5548 987.129 80.0645C987.129 79.5742 987.233 79.1226 987.439 78.7097C987.671 78.271 987.891 77.8581 988.097 77.471C988.329 77.0839 988.446 76.7226 988.446 76.3871C988.446 75.8968 988.11 75.6516 987.439 75.6516C986.768 75.6516 986.059 75.9226 985.31 76.4645C984.562 76.9806 983.929 77.6774 983.413 78.5548L983.104 77.6645C983.878 76.3226 984.807 75.2903 985.891 74.5677C986.975 73.8194 988.136 73.4452 989.375 73.4452C990.459 73.4452 991.297 73.729 991.891 74.2968C992.484 74.8645 992.781 75.6645 992.781 76.6968C992.781 77.5742 992.588 78.4 992.2 79.1742C991.839 79.9226 991.362 80.5419 990.768 81.0323C990.2 81.4968 989.568 81.729 988.871 81.729ZM1023.41 94.5419C1022.01 94.5419 1020.98 94.0129 1020.31 92.9548C1019.64 91.8968 1019.3 90.3871 1019.3 88.4258C1019.3 87.3419 1019.43 86.271 1019.69 85.2129C1019.95 84.129 1020.3 83.1613 1020.73 82.3097C1021.17 81.4323 1021.66 80.7355 1022.21 80.2194C1022.75 79.6774 1023.29 79.4065 1023.83 79.4065C1024.3 79.4065 1024.64 79.6258 1024.88 80.0645C1025.13 80.4774 1025.26 81.0968 1025.26 81.9226C1025.26 83.1871 1024.93 84.5677 1024.26 86.0645C1023.59 87.5613 1022.66 88.9806 1021.47 90.3226L1020.58 88.5032L1021.66 86.2194C1021.61 87.7419 1021.88 88.9032 1022.48 89.7032C1023.07 90.5032 1023.99 90.9032 1025.22 90.9032C1026.13 90.9032 1027.01 90.671 1027.86 90.2065C1028.73 89.7419 1029.52 89.1097 1030.22 88.3097C1030.92 87.5097 1031.47 86.6323 1031.88 85.6774C1032.32 84.6968 1032.54 83.7161 1032.54 82.7355C1032.54 81.9613 1032.42 81.3161 1032.19 80.8C1031.96 80.2581 1031.68 79.7806 1031.34 79.3677C1031.03 78.9548 1030.7 78.5677 1030.33 78.2065C1030 77.8452 1029.72 77.471 1029.48 77.0839C1029.25 76.6968 1029.13 76.2452 1029.13 75.729C1029.13 75.0323 1029.35 74.4774 1029.79 74.0645C1030.26 73.6516 1030.85 73.4452 1031.57 73.4452C1032.61 73.4452 1033.37 73.871 1033.86 74.7226C1034.37 75.5742 1034.63 76.8645 1034.63 78.5935C1034.63 80.5806 1034.32 82.529 1033.7 84.4387C1033.08 86.3226 1032.23 88.0258 1031.15 89.5484C1030.06 91.071 1028.85 92.2839 1027.51 93.1871C1026.19 94.0903 1024.82 94.5419 1023.41 94.5419ZM1013.92 94.5419C1012.22 94.5419 1010.86 94.0645 1009.86 93.1097C1008.85 92.129 1008.35 90.8 1008.35 89.1226C1008.35 88.1677 1008.52 87.2 1008.85 86.2194C1009.21 85.2129 1009.75 84.1548 1010.48 83.0452C1011.2 81.9355 1012.09 80.7355 1013.15 79.4452C1014.23 78.129 1015.5 76.671 1016.94 75.071C1016.42 75.2516 1015.87 75.3935 1015.28 75.4968C1014.71 75.6 1014.17 75.6516 1013.65 75.6516C1013.16 75.6516 1012.71 75.6 1012.3 75.4968C1011.91 75.3935 1011.57 75.2903 1011.29 75.1871C1011.01 75.0839 1010.76 75.0323 1010.55 75.0323C1010.06 75.0323 1009.82 75.2645 1009.82 75.729C1009.82 75.9871 1009.88 76.271 1010.01 76.5806C1010.17 76.8645 1010.31 77.1742 1010.44 77.5097C1010.57 77.8194 1010.63 78.1419 1010.63 78.4774C1010.63 79.0452 1010.42 79.5226 1010.01 79.9097C1009.62 80.2968 1009.13 80.4903 1008.54 80.4903C1007.97 80.4903 1007.52 80.2968 1007.19 79.9097C1006.88 79.5226 1006.72 78.9806 1006.72 78.2839C1006.72 77.3548 1006.99 76.529 1007.53 75.8065C1008.08 75.0839 1008.82 74.5161 1009.78 74.1032C1010.76 73.6645 1011.87 73.4452 1013.11 73.4452C1013.81 73.4452 1014.52 73.5097 1015.24 73.6387C1015.96 73.7419 1016.75 73.9097 1017.6 74.1419L1018.26 73.0968L1019.3 73.6774C1018.14 75.3806 1017.15 77.0194 1016.32 78.5935C1015.5 80.1677 1014.86 81.6516 1014.42 83.0452C1014.01 84.4387 1013.81 85.7677 1013.81 87.0323C1013.81 88.3742 1014.06 89.3935 1014.58 90.0903C1015.1 90.7613 1015.86 91.0968 1016.86 91.0968C1017.43 91.0968 1017.96 90.9806 1018.45 90.7484C1018.97 90.5161 1019.46 90.1677 1019.92 89.7032L1020.58 90.5548C1019.62 91.9226 1018.59 92.929 1017.48 93.5742C1016.4 94.2194 1015.21 94.5419 1013.92 94.5419ZM1046.31 94.5419C1043.94 94.5419 1042.09 93.8581 1040.78 92.4903C1039.49 91.0968 1038.84 89.1484 1038.84 86.6452C1038.84 84.8645 1039.15 83.1871 1039.77 81.6129C1040.42 80.0129 1041.31 78.6065 1042.44 77.3935C1043.58 76.1548 1044.88 75.1871 1046.35 74.4903C1047.82 73.7935 1049.4 73.4452 1051.07 73.4452C1053.45 73.4452 1055.29 74.1419 1056.61 75.5355C1057.93 76.929 1058.58 78.8774 1058.58 81.3806C1058.58 83.1613 1058.26 84.8516 1057.62 86.4516C1056.97 88.0258 1056.08 89.4194 1054.94 90.6323C1053.81 91.8452 1052.51 92.8 1051.03 93.4968C1049.56 94.1935 1047.99 94.5419 1046.31 94.5419ZM1046.62 93.0323C1047.27 93.0323 1047.9 92.7871 1048.52 92.2968C1049.16 91.7806 1049.76 91.0839 1050.3 90.2065C1050.87 89.329 1051.37 88.3355 1051.81 87.2258C1052.25 86.0903 1052.58 84.8903 1052.82 83.6258C1053.05 82.3355 1053.16 81.0452 1053.16 79.7548C1053.16 78.1806 1052.96 76.9935 1052.54 76.1935C1052.16 75.3677 1051.56 74.9548 1050.76 74.9548C1050.12 74.9548 1049.47 75.2129 1048.83 75.729C1048.21 76.2194 1047.62 76.9032 1047.05 77.7806C1046.51 78.6581 1046.02 79.6645 1045.58 80.8C1045.16 81.9355 1044.83 83.1484 1044.57 84.4387C1044.34 85.7032 1044.22 86.9677 1044.22 88.2323C1044.22 89.8323 1044.43 91.0323 1044.84 91.8323C1045.25 92.6323 1045.85 93.0323 1046.62 93.0323ZM1063.29 94L1067.43 79.2129C1067.74 78.129 1067.78 77.3032 1067.55 76.7355C1067.34 76.1419 1066.89 75.8452 1066.19 75.8452C1065.65 75.8452 1065.12 76.0645 1064.6 76.5032C1064.11 76.9161 1063.65 77.5484 1063.21 78.4L1062.47 79.7548H1060.96L1061.86 78.0903C1062.37 77.1097 1062.94 76.271 1063.56 75.5742C1064.2 74.8774 1064.93 74.3484 1065.73 73.9871C1066.53 73.6258 1067.4 73.4452 1068.36 73.4452C1069.65 73.4452 1070.67 73.7419 1071.42 74.3355C1072.16 74.9032 1072.63 75.7161 1072.81 76.7742C1073.02 77.8065 1072.93 79.0323 1072.54 80.4516L1068.75 94H1063.29ZM1078.07 81.729C1077.53 81.729 1077.11 81.5742 1076.8 81.2645C1076.49 80.9548 1076.33 80.5548 1076.33 80.0645C1076.33 79.5742 1076.44 79.1226 1076.64 78.7097C1076.87 78.271 1077.09 77.8581 1077.3 77.471C1077.53 77.0839 1077.65 76.7226 1077.65 76.3871C1077.65 75.8968 1077.31 75.6516 1076.64 75.6516C1075.97 75.6516 1075.26 75.9226 1074.51 76.4645C1073.76 76.9806 1073.13 77.6774 1072.62 78.5548L1072.31 77.6645C1073.08 76.3226 1074.01 75.2903 1075.09 74.5677C1076.18 73.8194 1077.34 73.4452 1078.58 73.4452C1079.66 73.4452 1080.5 73.729 1081.09 74.2968C1081.69 74.8645 1081.98 75.6645 1081.98 76.6968C1081.98 77.5742 1081.79 78.4 1081.4 79.1742C1081.04 79.9226 1080.56 80.5419 1079.97 81.0323C1079.4 81.4968 1078.77 81.729 1078.07 81.729ZM1088.65 94.5419C1087.35 94.5419 1086.32 94.2581 1085.55 93.6903C1084.8 93.0968 1084.34 92.2839 1084.15 91.2516C1083.97 90.1935 1084.08 88.9677 1084.46 87.5742L1089.38 69.9613C1089.66 69.0065 1089.74 68.271 1089.61 67.7548C1089.51 67.2387 1089.15 66.8774 1088.53 66.671C1087.91 66.4645 1086.98 66.3484 1085.74 66.3226L1086.17 64.8129C1088.34 64.7871 1090.28 64.6452 1092.01 64.3871C1093.74 64.129 1095.32 63.7419 1096.74 63.2258L1089.54 88.8129C1089.25 89.8452 1089.21 90.6581 1089.42 91.2516C1089.63 91.8452 1090.08 92.1419 1090.77 92.1419C1091.34 92.1419 1091.87 91.9355 1092.36 91.5226C1092.88 91.1097 1093.35 90.4774 1093.79 89.6258L1094.53 88.271H1096.04L1095.15 89.8968C1094.63 90.8774 1094.05 91.7161 1093.41 92.4129C1092.76 93.1097 1092.05 93.6387 1091.28 94C1090.5 94.3613 1089.63 94.5419 1088.65 94.5419ZM1115.16 94.5419C1113.87 94.5419 1112.85 94.2581 1112.1 93.6903C1111.35 93.0968 1110.88 92.271 1110.67 91.2129C1110.49 90.1548 1110.59 88.9419 1110.98 87.5742L1115.9 69.9613C1116.18 69.0065 1116.27 68.271 1116.17 67.7548C1116.06 67.2387 1115.72 66.8774 1115.12 66.671C1114.55 66.4645 1113.66 66.3484 1112.45 66.3226L1112.92 64.8129C1115.06 64.7871 1116.97 64.6452 1118.64 64.3871C1120.32 64.129 1121.86 63.7419 1123.25 63.2258L1116.09 88.8129C1115.78 89.8452 1115.73 90.6581 1115.93 91.2516C1116.14 91.8452 1116.59 92.1419 1117.29 92.1419C1117.86 92.1419 1118.39 91.9355 1118.88 91.5226C1119.39 91.1097 1119.87 90.4774 1120.31 89.6258L1121.04 88.271L1122.55 88.271L1121.66 89.8968C1121.15 90.8774 1120.57 91.7161 1119.92 92.4129C1119.3 93.1097 1118.59 93.6387 1117.79 94C1117.02 94.3613 1116.14 94.5419 1115.16 94.5419ZM1104.86 94.5419C1102.93 94.5419 1101.41 93.8839 1100.3 92.5677C1099.19 91.2258 1098.63 89.3935 1098.63 87.071C1098.63 85.2645 1098.95 83.5484 1099.6 81.9226C1100.24 80.2968 1101.11 78.8516 1102.19 77.5871C1103.3 76.2968 1104.57 75.2903 1105.99 74.5677C1107.43 73.8194 1108.93 73.4452 1110.48 73.4452C1111.77 73.4452 1112.99 73.7161 1114.15 74.2581C1115.32 74.8 1116.39 75.5871 1117.37 76.6194L1113.65 78.9806C1113.57 77.7161 1113.26 76.7355 1112.72 76.0387C1112.21 75.3161 1111.53 74.9548 1110.71 74.9548C1109.88 74.9548 1109.07 75.2774 1108.27 75.9226C1107.5 76.5677 1106.8 77.4452 1106.18 78.5548C1105.56 79.6387 1105.07 80.8774 1104.71 82.271C1104.35 83.6387 1104.17 85.0581 1104.17 86.529C1104.17 88.2323 1104.44 89.5355 1104.98 90.4387C1105.55 91.3419 1106.33 91.7935 1107.34 91.7935C1108.06 91.7935 1108.72 91.5871 1109.32 91.1742C1109.93 90.7355 1110.5 90.0774 1111.02 89.2L1111.37 89.7806C1110.62 91.3806 1109.7 92.5806 1108.62 93.3806C1107.56 94.1548 1106.31 94.5419 1104.86 94.5419ZM1141.86 94.5419C1140.47 94.5419 1139.43 94.0129 1138.76 92.9548C1138.09 91.8968 1137.76 90.3871 1137.76 88.4258C1137.76 87.3419 1137.88 86.271 1138.14 85.2129C1138.4 84.129 1138.75 83.1613 1139.19 82.3097C1139.63 81.4323 1140.12 80.7355 1140.66 80.2194C1141.2 79.6774 1141.74 79.4065 1142.28 79.4065C1142.75 79.4065 1143.1 79.6258 1143.33 80.0645C1143.59 80.4774 1143.72 81.0968 1143.72 81.9226C1143.72 83.1871 1143.38 84.5677 1142.71 86.0645C1142.04 87.5613 1141.11 88.9806 1139.92 90.3226L1139.03 88.5032L1140.12 86.2194C1140.07 87.7419 1140.34 88.9032 1140.93 89.7032C1141.52 90.5032 1142.44 90.9032 1143.68 90.9032C1144.58 90.9032 1145.46 90.671 1146.31 90.2065C1147.19 89.7419 1147.97 89.1097 1148.67 88.3097C1149.37 87.5097 1149.92 86.6323 1150.34 85.6774C1150.77 84.6968 1150.99 83.7161 1150.99 82.7355C1150.99 81.9613 1150.88 81.3161 1150.65 80.8C1150.41 80.2581 1150.13 79.7806 1149.79 79.3677C1149.48 78.9548 1149.15 78.5677 1148.79 78.2065C1148.45 77.8452 1148.17 77.471 1147.94 77.0839C1147.7 76.6968 1147.59 76.2452 1147.59 75.729C1147.59 75.0323 1147.81 74.4774 1148.25 74.0645C1148.71 73.6516 1149.3 73.4452 1150.03 73.4452C1151.06 73.4452 1151.82 73.871 1152.31 74.7226C1152.83 75.5742 1153.08 76.8645 1153.08 78.5935C1153.08 80.5806 1152.77 82.529 1152.16 84.4387C1151.54 86.3226 1150.68 88.0258 1149.6 89.5484C1148.52 91.071 1147.3 92.2839 1145.96 93.1871C1144.65 94.0903 1143.28 94.5419 1141.86 94.5419ZM1132.37 94.5419C1130.67 94.5419 1129.32 94.0645 1128.31 93.1097C1127.3 92.129 1126.8 90.8 1126.8 89.1226C1126.8 88.1677 1126.97 87.2 1127.3 86.2194C1127.67 85.2129 1128.21 84.1548 1128.93 83.0452C1129.65 81.9355 1130.54 80.7355 1131.6 79.4452C1132.68 78.129 1133.95 76.671 1135.39 75.071C1134.88 75.2516 1134.32 75.3935 1133.73 75.4968C1133.16 75.6 1132.62 75.6516 1132.1 75.6516C1131.61 75.6516 1131.16 75.6 1130.75 75.4968C1130.36 75.3935 1130.03 75.2903 1129.74 75.1871C1129.46 75.0839 1129.21 75.0323 1129.01 75.0323C1128.52 75.0323 1128.27 75.2645 1128.27 75.729C1128.27 75.9871 1128.34 76.271 1128.47 76.5806C1128.62 76.8645 1128.76 77.1742 1128.89 77.5097C1129.02 77.8194 1129.08 78.1419 1129.08 78.4774C1129.08 79.0452 1128.88 79.5226 1128.47 79.9097C1128.08 80.2968 1127.59 80.4903 1126.99 80.4903C1126.43 80.4903 1125.97 80.2968 1125.64 79.9097C1125.33 79.5226 1125.17 78.9806 1125.17 78.2839C1125.17 77.3548 1125.45 76.529 1125.99 75.8065C1126.53 75.0839 1127.28 74.5161 1128.23 74.1032C1129.21 73.6645 1130.32 73.4452 1131.56 73.4452C1132.26 73.4452 1132.97 73.5097 1133.69 73.6387C1134.41 73.7419 1135.2 73.9097 1136.05 74.1419L1136.71 73.0968L1137.76 73.6774C1136.59 75.3806 1135.6 77.0194 1134.77 78.5935C1133.95 80.1677 1133.32 81.6516 1132.88 83.0452C1132.47 84.4387 1132.26 85.7677 1132.26 87.0323C1132.26 88.3742 1132.52 89.3935 1133.03 90.0903C1133.55 90.7613 1134.31 91.0968 1135.32 91.0968C1135.88 91.0968 1136.41 90.9806 1136.9 90.7484C1137.42 90.5161 1137.91 90.1677 1138.37 89.7032L1139.03 90.5548C1138.08 91.9226 1137.05 92.929 1135.94 93.5742C1134.85 94.2194 1133.67 94.5419 1132.37 94.5419ZM1163.99 94.5419C1162.69 94.5419 1161.65 94.2452 1160.85 93.6516C1160.08 93.0323 1159.59 92.1935 1159.38 91.1355C1159.2 90.0774 1159.35 88.8774 1159.84 87.5355L1162.79 79.2129C1163.15 78.2065 1163.21 77.3935 1162.98 76.7742C1162.77 76.1548 1162.31 75.8452 1161.59 75.8452C1161.02 75.8452 1160.48 76.0516 1159.96 76.4645C1159.47 76.8774 1159 77.5226 1158.57 78.4L1157.83 79.7548H1156.32L1157.21 78.0903C1158.06 76.4903 1159 75.3161 1160.04 74.5677C1161.09 73.8194 1162.32 73.4452 1163.71 73.4452C1165.03 73.4452 1166.08 73.7548 1166.85 74.3742C1167.62 74.9677 1168.11 75.7935 1168.32 76.8516C1168.53 77.8839 1168.37 79.0839 1167.86 80.4516L1164.91 88.7742C1164.55 89.7806 1164.49 90.5935 1164.72 91.2129C1164.95 91.8323 1165.42 92.1419 1166.11 92.1419C1167.25 92.1419 1168.27 91.3032 1169.17 89.6258L1169.87 88.271H1171.38L1170.53 89.8968C1169.68 91.5226 1168.72 92.7097 1167.66 93.4581C1166.6 94.1806 1165.38 94.5419 1163.99 94.5419ZM1166.85 70.0387C1165.95 70.0387 1165.2 69.7806 1164.6 69.2645C1164.04 68.7226 1163.75 68.0258 1163.75 67.1742C1163.75 66.2452 1164.1 65.471 1164.8 64.8516C1165.49 64.2065 1166.33 63.8839 1167.31 63.8839C1168.22 63.8839 1168.95 64.1548 1169.52 64.6968C1170.11 65.2129 1170.41 65.8968 1170.41 66.7484C1170.41 67.6774 1170.06 68.4645 1169.37 69.1097C1168.69 69.729 1167.86 70.0387 1166.85 70.0387ZM1190.77 94.5419C1189.48 94.5419 1188.46 94.2581 1187.71 93.6903C1186.96 93.0968 1186.49 92.271 1186.28 91.2129C1186.1 90.1548 1186.2 88.9419 1186.59 87.5742L1191.51 69.9613C1191.79 69.0065 1191.88 68.271 1191.78 67.7548C1191.67 67.2387 1191.32 66.8774 1190.73 66.671C1190.16 66.4645 1189.27 66.3484 1188.06 66.3226L1188.52 64.8129C1190.67 64.7871 1192.58 64.6452 1194.25 64.3871C1195.93 64.129 1197.47 63.7419 1198.86 63.2258L1191.7 88.8129C1191.39 89.8452 1191.34 90.6581 1191.54 91.2516C1191.75 91.8452 1192.2 92.1419 1192.9 92.1419C1193.47 92.1419 1194 91.9355 1194.49 91.5226C1195 91.1097 1195.48 90.4774 1195.92 89.6258L1196.65 88.271H1198.16L1197.27 89.8968C1196.76 90.8774 1196.18 91.7161 1195.53 92.4129C1194.91 93.1097 1194.2 93.6387 1193.4 94C1192.63 94.3613 1191.75 94.5419 1190.77 94.5419ZM1180.47 94.5419C1178.54 94.5419 1177.02 93.8839 1175.91 92.5677C1174.8 91.2258 1174.24 89.3935 1174.24 87.071C1174.24 85.2645 1174.56 83.5484 1175.21 81.9226C1175.85 80.2968 1176.72 78.8516 1177.8 77.5871C1178.91 76.2968 1180.18 75.2903 1181.6 74.5677C1183.04 73.8194 1184.54 73.4452 1186.09 73.4452C1187.38 73.4452 1188.6 73.7161 1189.76 74.2581C1190.92 74.8 1192 75.5871 1192.98 76.6194L1189.26 78.9806C1189.18 77.7161 1188.87 76.7355 1188.33 76.0387C1187.82 75.3161 1187.14 74.9548 1186.32 74.9548C1185.49 74.9548 1184.68 75.2774 1183.88 75.9226C1183.11 76.5677 1182.41 77.4452 1181.79 78.5548C1181.17 79.6387 1180.68 80.8774 1180.32 82.271C1179.96 83.6387 1179.78 85.0581 1179.78 86.529C1179.78 88.2323 1180.05 89.5355 1180.59 90.4387C1181.16 91.3419 1181.94 91.7935 1182.95 91.7935C1183.67 91.7935 1184.33 91.5871 1184.92 91.1742C1185.54 90.7355 1186.11 90.0774 1186.63 89.2L1186.98 89.7806C1186.23 91.3806 1185.31 92.5806 1184.23 93.3806C1183.17 94.1548 1181.92 94.5419 1180.47 94.5419ZM1207.74 94.5419C1205.45 94.5419 1203.64 93.871 1202.32 92.529C1201.03 91.1613 1200.39 89.2645 1200.39 86.8387C1200.39 85.0581 1200.72 83.3677 1201.4 81.7677C1202.07 80.1419 1202.98 78.7097 1204.14 77.471C1205.33 76.2065 1206.69 75.2258 1208.21 74.529C1209.73 73.8065 1211.33 73.4452 1213.01 73.4452C1214.69 73.4452 1215.96 73.7935 1216.84 74.4903C1217.74 75.1613 1218.2 76.1419 1218.2 77.4323C1218.2 78.8 1217.67 80.1032 1216.61 81.3419C1215.58 82.5806 1214.11 83.6903 1212.2 84.671C1210.31 85.6258 1208.09 86.3742 1205.54 86.9161V85.6774C1207.32 85.0581 1208.83 84.3097 1210.07 83.4323C1211.31 82.529 1212.25 81.5355 1212.89 80.4516C1213.54 79.3677 1213.86 78.2581 1213.86 77.1226C1213.86 76.3742 1213.73 75.8194 1213.47 75.4581C1213.21 75.0968 1212.84 74.9161 1212.35 74.9161C1211.6 74.9161 1210.84 75.2516 1210.07 75.9226C1209.32 76.5935 1208.63 77.4968 1208.01 78.6323C1207.4 79.7419 1206.89 80.9677 1206.51 82.3097C1206.12 83.6516 1205.92 84.9935 1205.92 86.3355C1205.92 88.1677 1206.26 89.5742 1206.93 90.5548C1207.63 91.5097 1208.62 91.9871 1209.91 91.9871C1210.97 91.9871 1211.91 91.7032 1212.74 91.1355C1213.59 90.5419 1214.35 89.6645 1215.02 88.5032H1216.49C1215.51 90.4903 1214.29 92 1212.81 93.0323C1211.37 94.0387 1209.68 94.5419 1207.74 94.5419Z" fill="white"/>
</svg>
