<svg width="1760" height="139" viewBox="0 0 1760 139" fill="none" xmlns="http://www.w3.org/2000/svg">
<path d="M0 101.5L128 102V0H0L39.8444 51L0 101.5Z" fill="#C10326"/>
<path d="M81.0104 28.9951L128.002 0.000139571L128.011 29.0107L81.0104 28.9951Z" fill="#222222" fill-opacity="0.5"/>
<path d="M1760 101.5L1632 102V0H1760L1720.16 51L1760 101.5Z" fill="#C10326"/>
<path d="M1678.99 28.9951L1632 0.000139571L1631.99 29.0107L1678.99 28.9951Z" fill="#222222" fill-opacity="0.5"/>
<rect width="1598" height="110" transform="translate(81 29)" fill="#B80022"/>
<path d="M576.742 99H568.914L568.445 62.9062L574.82 62.9062L574.281 85.3828C574.234 87.2109 574.078 90.0234 573.812 93.8203C574.625 90.3672 575.422 87.5469 576.203 85.3594L584.266 62.9062H589.844L589.891 85.6172C589.891 88.1953 589.812 90.9219 589.656 93.7969L591.062 88.1484C591.344 87.0859 591.562 86.3047 591.719 85.8047L599.102 62.9062H606.016L592.68 99H584.898L584.805 81.9141C584.805 80.8047 584.961 78.0391 585.273 73.6172C584.273 77.2891 583.445 80.0547 582.789 81.9141L576.742 99ZM618.133 82.0078C618.43 80.6172 618.578 79.4531 618.578 78.5156C618.578 76.6875 617.68 75.7734 615.883 75.7734C614.445 75.7734 613.359 76.4922 612.625 77.9297C612.188 78.7734 611.805 80.1328 611.477 82.0078H618.133ZM616.609 90.0703H622.469C621.938 96.6328 618.672 99.9141 612.672 99.9141C606.844 99.9141 603.93 97.2578 603.93 91.9453C603.93 90.7891 604.047 89.3437 604.281 87.6094C604.906 82.9844 605.656 79.6328 606.531 77.5547C607.484 75.2891 608.734 73.6641 610.281 72.6797C611.781 71.7266 613.781 71.25 616.281 71.25C619.031 71.25 621.062 71.8047 622.375 72.9141C623.812 74.1172 624.531 76.0625 624.531 78.75C624.531 80.7344 624.18 83.2266 623.477 86.2266H610.703C610.156 88.8984 609.883 90.8203 609.883 91.9922C609.883 94.1953 610.875 95.2969 612.859 95.2969C614.969 95.2969 616.219 93.5547 616.609 90.0703ZM648.25 94.6406C649.797 94.6406 650.953 93.6641 651.719 91.7109C653.484 87.1797 654.367 82.9687 654.367 79.0781C654.367 76.9375 653.578 75.8672 652 75.8672C650.266 75.8672 648.906 77.4531 647.922 80.625C646.578 84.9531 645.906 88.6484 645.906 91.7109C645.906 93.6641 646.688 94.6406 648.25 94.6406ZM649.117 72.1172L648.555 74.9062C650.055 72.4375 652.008 71.2031 654.414 71.2031C658.445 71.2031 660.461 73.8594 660.461 79.1719C660.461 80.3906 660.234 82.3281 659.781 84.9844C659.141 88.7812 658.344 91.7422 657.391 93.8672C655.688 97.7109 653.188 99.6328 649.891 99.6328C647.359 99.6328 645.68 98.3672 644.852 95.8359L642.32 108.117H635.922L643.656 72.1172H649.117ZM673.328 72.1172L672.273 76.3828H672.414C673.867 72.9922 676.102 71.2969 679.117 71.2969C679.539 71.2969 679.891 71.3125 680.172 71.3437L678.789 78.2578C678.195 78.1953 677.617 78.1641 677.055 78.1641C675.336 78.1641 674.039 78.5703 673.164 79.3828C672.367 80.1328 671.781 81.375 671.406 83.1094L668.031 99H661.75L667.516 72.1172H673.328ZM679.07 91.3594C679.07 89.7969 679.359 87.5156 679.938 84.5156C680.781 80.1875 681.836 77.0625 683.102 75.1406C684.82 72.5469 687.508 71.25 691.164 71.25C697.117 71.25 700.094 74.0547 700.094 79.6641C700.094 81.5234 699.812 83.8437 699.25 86.625C698.422 90.6875 697.328 93.8047 695.969 95.9766C694.328 98.6016 691.641 99.9141 687.906 99.9141C682.016 99.9141 679.07 97.0625 679.07 91.3594ZM691.023 75.8672C689.867 75.8672 688.953 76.3906 688.281 77.4375C687.875 78.0625 687.477 79.1094 687.086 80.5781C685.68 85.7969 684.977 89.5703 684.977 91.8984C684.977 94.1641 685.984 95.2969 688 95.2969C689.172 95.2969 690.094 94.7734 690.766 93.7266C691.141 93.1172 691.531 92.0625 691.938 90.5625C693.344 85.3437 694.047 81.5937 694.047 79.3125C694.047 77.0156 693.039 75.8672 691.023 75.8672ZM715.047 76.4766C713.453 76.4766 712.25 77.5312 711.438 79.6406C709.781 84.0156 708.953 88.1484 708.953 92.0391C708.953 94.1797 709.719 95.25 711.25 95.25C712.781 95.25 713.945 94.2266 714.742 92.1797C715.227 90.9453 715.773 88.9922 716.383 86.3203C717.055 83.3672 717.391 81.1484 717.391 79.6641C717.391 77.5391 716.609 76.4766 715.047 76.4766ZM714.133 99L714.742 96.2109C713.242 98.6484 711.289 99.8672 708.883 99.8672C704.852 99.8672 702.836 97.2266 702.836 91.9453C702.836 90.5234 703.047 88.5859 703.469 86.1328C704.094 82.5234 704.914 79.5625 705.93 77.25C707.617 73.4062 710.094 71.4844 713.359 71.4844C715.891 71.4844 717.57 72.75 718.398 75.2812L721 63H727.422L719.641 99H714.133ZM742.891 72.1172H749.125L743.406 99H737.594L738.18 96.7031C736.039 98.7812 733.844 99.8203 731.594 99.8203C728.078 99.8203 726.32 98.125 726.32 94.7344C726.32 93.9687 726.477 92.8594 726.789 91.4062L730.938 72.1172H737.172L733.188 90.8906C733 91.7812 732.906 92.4844 732.906 93C732.906 94.5 733.625 95.25 735.062 95.25C736.984 95.25 738.297 93.6016 739 90.3047L742.891 72.1172ZM769 88.8281C768.594 92.3281 767.688 94.9609 766.281 96.7266C764.609 98.8203 762.125 99.8672 758.828 99.8672C753.219 99.8672 750.414 97.1641 750.414 91.7578C750.414 90.0078 750.703 87.5937 751.281 84.5156C752.078 80.25 753.133 77.1406 754.445 75.1875C756.195 72.5625 758.852 71.25 762.414 71.25C767.961 71.25 770.734 73.8437 770.734 79.0312C770.734 79.7969 770.648 80.6953 770.477 81.7266H764.477C764.68 80.6172 764.781 79.7187 764.781 79.0312C764.781 76.9531 763.898 75.9141 762.133 75.9141C760.477 75.9141 759.242 77.4687 758.43 80.5781C757.117 85.6094 756.461 89.3203 756.461 91.7109C756.461 94.0391 757.297 95.2031 758.969 95.2031C761.094 95.2031 762.406 93.0781 762.906 88.8281H769ZM787.164 82.0078C787.461 80.6172 787.609 79.4531 787.609 78.5156C787.609 76.6875 786.711 75.7734 784.914 75.7734C783.477 75.7734 782.391 76.4922 781.656 77.9297C781.219 78.7734 780.836 80.1328 780.508 82.0078H787.164ZM785.641 90.0703H791.5C790.969 96.6328 787.703 99.9141 781.703 99.9141C775.875 99.9141 772.961 97.2578 772.961 91.9453C772.961 90.7891 773.078 89.3437 773.312 87.6094C773.938 82.9844 774.688 79.6328 775.562 77.5547C776.516 75.2891 777.766 73.6641 779.312 72.6797C780.812 71.7266 782.812 71.25 785.312 71.25C788.062 71.25 790.094 71.8047 791.406 72.9141C792.844 74.1172 793.562 76.0625 793.562 78.75C793.562 80.7344 793.211 83.2266 792.508 86.2266H779.734C779.188 88.8984 778.914 90.8203 778.914 91.9922C778.914 94.1953 779.906 95.2969 781.891 95.2969C784 95.2969 785.25 93.5547 785.641 90.0703ZM822.086 74.625C824.461 73.0312 825.648 71.4453 825.648 69.8672C825.648 68.1953 824.844 67.3594 823.234 67.3594C821.484 67.3594 820.609 68.2578 820.609 70.0547C820.609 70.8359 821.102 72.3594 822.086 74.625ZM823.914 92.5312L819.297 82.5469C816.547 84.3437 815.172 86.4531 815.172 88.875C815.172 90.2812 815.609 91.4922 816.484 92.5078C817.391 93.5703 818.539 94.1016 819.93 94.1016C821.227 94.1016 822.555 93.5781 823.914 92.5312ZM833.43 99H826.891L825.93 97.1719C823.836 99 821.438 99.9141 818.734 99.9141C815.75 99.9141 813.359 98.8516 811.562 96.7266C809.875 94.7266 809.031 92.2031 809.031 89.1562C809.031 84.4375 811.781 80.6172 817.281 77.6953C815.875 74.9453 815.172 72.5391 815.172 70.4766C815.172 68.2422 815.914 66.4062 817.398 64.9687C818.898 63.5312 820.766 62.8125 823 62.8125C825.312 62.8125 827.195 63.4141 828.648 64.6172C830.195 65.9141 830.969 67.6953 830.969 69.9609C830.969 73.6172 828.781 76.7187 824.406 79.2656L827.992 87.0937C828.867 85.6562 829.492 83.5625 829.867 80.8125H835.094C834.875 84.8906 833.359 88.9062 830.547 92.8594L833.43 99ZM862.469 76.4766C860.875 76.4766 859.672 77.5312 858.859 79.6406C857.203 84.0156 856.375 88.1484 856.375 92.0391C856.375 94.1797 857.141 95.25 858.672 95.25C860.203 95.25 861.367 94.2266 862.164 92.1797C862.648 90.9453 863.195 88.9922 863.805 86.3203C864.477 83.3672 864.812 81.1484 864.812 79.6641C864.812 77.5391 864.031 76.4766 862.469 76.4766ZM861.555 99L862.164 96.2109C860.664 98.6484 858.711 99.8672 856.305 99.8672C852.273 99.8672 850.258 97.2266 850.258 91.9453C850.258 90.5234 850.469 88.5859 850.891 86.1328C851.516 82.5234 852.336 79.5625 853.352 77.25C855.039 73.4062 857.516 71.4844 860.781 71.4844C863.312 71.4844 864.992 72.75 865.82 75.2812L868.422 63H874.844L867.062 99H861.555ZM888.32 82.0078C888.617 80.6172 888.766 79.4531 888.766 78.5156C888.766 76.6875 887.867 75.7734 886.07 75.7734C884.633 75.7734 883.547 76.4922 882.812 77.9297C882.375 78.7734 881.992 80.1328 881.664 82.0078H888.32ZM886.797 90.0703H892.656C892.125 96.6328 888.859 99.9141 882.859 99.9141C877.031 99.9141 874.117 97.2578 874.117 91.9453C874.117 90.7891 874.234 89.3437 874.469 87.6094C875.094 82.9844 875.844 79.6328 876.719 77.5547C877.672 75.2891 878.922 73.6641 880.469 72.6797C881.969 71.7266 883.969 71.25 886.469 71.25C889.219 71.25 891.25 71.8047 892.562 72.9141C894 74.1172 894.719 76.0625 894.719 78.75C894.719 80.7344 894.367 83.2266 893.664 86.2266H880.891C880.344 88.8984 880.07 90.8203 880.07 91.9922C880.07 94.1953 881.062 95.2969 883.047 95.2969C885.156 95.2969 886.406 93.5547 886.797 90.0703ZM896.031 99L903.672 63H910L902.312 99H896.031ZM914.617 68.3672L915.719 63H922.047L920.898 68.3672H914.617ZM908.078 99L913.797 72.1172H920.078L914.359 99H908.078ZM931.656 99H924.602L922.562 72.1172H928.82L929.289 91.9453L936.602 72.1172H943.258L931.656 99ZM956.805 82.0078C957.102 80.6172 957.25 79.4531 957.25 78.5156C957.25 76.6875 956.352 75.7734 954.555 75.7734C953.117 75.7734 952.031 76.4922 951.297 77.9297C950.859 78.7734 950.477 80.1328 950.148 82.0078H956.805ZM955.281 90.0703H961.141C960.609 96.6328 957.344 99.9141 951.344 99.9141C945.516 99.9141 942.602 97.2578 942.602 91.9453C942.602 90.7891 942.719 89.3437 942.953 87.6094C943.578 82.9844 944.328 79.6328 945.203 77.5547C946.156 75.2891 947.406 73.6641 948.953 72.6797C950.453 71.7266 952.453 71.25 954.953 71.25C957.703 71.25 959.734 71.8047 961.047 72.9141C962.484 74.1172 963.203 76.0625 963.203 78.75C963.203 80.7344 962.852 83.2266 962.148 86.2266H949.375C948.828 88.8984 948.555 90.8203 948.555 91.9922C948.555 94.1953 949.547 95.2969 951.531 95.2969C953.641 95.2969 954.891 93.5547 955.281 90.0703ZM976.094 72.1172L975.039 76.3828H975.18C976.633 72.9922 978.867 71.2969 981.883 71.2969C982.305 71.2969 982.656 71.3125 982.938 71.3437L981.555 78.2578C980.961 78.1953 980.383 78.1641 979.82 78.1641C978.102 78.1641 976.805 78.5703 975.93 79.3828C975.133 80.1328 974.547 81.375 974.172 83.1094L970.797 99H964.516L970.281 72.1172H976.094ZM997.516 99L996.18 72.1172H1002.13L1002.32 91.5703L1009.09 72.1172H1014.27L1014.37 91.9922L1021.09 72.1172H1027.38L1016.92 99H1009.96L1009.91 82.2422L1004.01 99H997.516ZM1027.26 91.3594C1027.26 89.7969 1027.55 87.5156 1028.12 84.5156C1028.97 80.1875 1030.02 77.0625 1031.29 75.1406C1033.01 72.5469 1035.7 71.25 1039.35 71.25C1045.3 71.25 1048.28 74.0547 1048.28 79.6641C1048.28 81.5234 1048 83.8437 1047.44 86.625C1046.61 90.6875 1045.52 93.8047 1044.16 95.9766C1042.52 98.6016 1039.83 99.9141 1036.09 99.9141C1030.2 99.9141 1027.26 97.0625 1027.26 91.3594ZM1039.21 75.8672C1038.05 75.8672 1037.14 76.3906 1036.47 77.4375C1036.06 78.0625 1035.66 79.1094 1035.27 80.5781C1033.87 85.7969 1033.16 89.5703 1033.16 91.8984C1033.16 94.1641 1034.17 95.2969 1036.19 95.2969C1037.36 95.2969 1038.28 94.7734 1038.95 93.7266C1039.33 93.1172 1039.72 92.0625 1040.12 90.5625C1041.53 85.3437 1042.23 81.5937 1042.23 79.3125C1042.23 77.0156 1041.23 75.8672 1039.21 75.8672ZM1061.22 72.1172L1060.16 76.3828H1060.3C1061.76 72.9922 1063.99 71.2969 1067.01 71.2969C1067.43 71.2969 1067.78 71.3125 1068.06 71.3437L1066.68 78.2578C1066.09 78.1953 1065.51 78.1641 1064.95 78.1641C1063.23 78.1641 1061.93 78.5703 1061.05 79.3828C1060.26 80.1328 1059.67 81.375 1059.3 83.1094L1055.92 99H1049.64L1055.41 72.1172H1061.22ZM1066.47 99L1074.11 63H1080.44L1072.75 99H1066.47ZM1092.11 76.4766C1090.52 76.4766 1089.31 77.5312 1088.5 79.6406C1086.84 84.0156 1086.02 88.1484 1086.02 92.0391C1086.02 94.1797 1086.78 95.25 1088.31 95.25C1089.84 95.25 1091.01 94.2266 1091.8 92.1797C1092.29 90.9453 1092.84 88.9922 1093.45 86.3203C1094.12 83.3672 1094.45 81.1484 1094.45 79.6641C1094.45 77.5391 1093.67 76.4766 1092.11 76.4766ZM1091.2 99L1091.8 96.2109C1090.3 98.6484 1088.35 99.8672 1085.95 99.8672C1081.91 99.8672 1079.9 97.2266 1079.9 91.9453C1079.9 90.5234 1080.11 88.5859 1080.53 86.1328C1081.16 82.5234 1081.98 79.5625 1082.99 77.25C1084.68 73.4062 1087.16 71.4844 1090.42 71.4844C1092.95 71.4844 1094.63 72.75 1095.46 75.2812L1098.06 63H1104.48L1096.7 99H1091.2ZM1106.59 99L1105.26 72.1172H1111.21L1111.4 91.5703L1118.17 72.1172H1123.35L1123.45 91.9922L1130.17 72.1172H1136.45L1126 99L1119.04 99L1118.99 82.2422L1113.09 99H1106.59ZM1141.54 68.3672L1142.64 63H1148.97L1147.82 68.3672L1141.54 68.3672ZM1135 99L1140.72 72.1172L1147 72.1172L1141.28 99H1135ZM1160.64 76.4766C1159.05 76.4766 1157.84 77.5312 1157.03 79.6406C1155.38 84.0156 1154.55 88.1484 1154.55 92.0391C1154.55 94.1797 1155.31 95.25 1156.84 95.25C1158.38 95.25 1159.54 94.2266 1160.34 92.1797C1160.82 90.9453 1161.37 88.9922 1161.98 86.3203C1162.65 83.3672 1162.98 81.1484 1162.98 79.6641C1162.98 77.5391 1162.2 76.4766 1160.64 76.4766ZM1159.73 99L1160.34 96.2109C1158.84 98.6484 1156.88 99.8672 1154.48 99.8672C1150.45 99.8672 1148.43 97.2266 1148.43 91.9453C1148.43 90.5234 1148.64 88.5859 1149.06 86.1328C1149.69 82.5234 1150.51 79.5625 1151.52 77.25C1153.21 73.4062 1155.69 71.4844 1158.95 71.4844C1161.48 71.4844 1163.16 72.75 1163.99 75.2812L1166.59 63H1173.02L1165.23 99H1159.73ZM1186.49 82.0078C1186.79 80.6172 1186.94 79.4531 1186.94 78.5156C1186.94 76.6875 1186.04 75.7734 1184.24 75.7734C1182.8 75.7734 1181.72 76.4922 1180.98 77.9297C1180.55 78.7734 1180.16 80.1328 1179.84 82.0078H1186.49ZM1184.97 90.0703H1190.83C1190.3 96.6328 1187.03 99.9141 1181.03 99.9141C1175.2 99.9141 1172.29 97.2578 1172.29 91.9453C1172.29 90.7891 1172.41 89.3437 1172.64 87.6094C1173.27 82.9844 1174.02 79.6328 1174.89 77.5547C1175.84 75.2891 1177.09 73.6641 1178.64 72.6797C1180.14 71.7266 1182.14 71.25 1184.64 71.25C1187.39 71.25 1189.42 71.8047 1190.73 72.9141C1192.17 74.1172 1192.89 76.0625 1192.89 78.75C1192.89 80.7344 1192.54 83.2266 1191.84 86.2266H1179.06C1178.52 88.8984 1178.24 90.8203 1178.24 91.9922C1178.24 94.1953 1179.23 95.2969 1181.22 95.2969C1183.33 95.2969 1184.58 93.5547 1184.97 90.0703Z" fill="white"/>
</svg>
