<svg width="1760" height="110" viewBox="0 0 1760 110" fill="none" xmlns="http://www.w3.org/2000/svg">
<rect width="1760" height="110" rx="12" fill="#B80022"/>
<path d="M410.199 77H401.066L400.52 34.8906H407.957L407.328 61.1133C407.273 63.2461 407.091 66.5273 406.781 70.957C407.729 66.9284 408.659 63.638 409.57 61.0859L418.977 34.8906H425.484L425.539 61.3867C425.539 64.3945 425.448 67.5755 425.266 70.9297L426.906 64.3398C427.234 63.1003 427.49 62.1888 427.672 61.6055L436.285 34.8906H444.352L428.793 77H419.715L419.605 57.0664C419.605 55.7721 419.788 52.5456 420.152 47.3867C418.986 51.6706 418.02 54.8971 417.254 57.0664L410.199 77ZM466.488 57.1758C466.835 55.5534 467.008 54.1953 467.008 53.1016C467.008 50.9687 465.96 49.9023 463.863 49.9023C462.186 49.9023 460.919 50.7409 460.062 52.418C459.552 53.4023 459.105 54.9883 458.723 57.1758H466.488ZM464.711 66.582H471.547C470.927 74.2383 467.117 78.0664 460.117 78.0664C453.318 78.0664 449.918 74.9674 449.918 68.7695C449.918 67.4206 450.055 65.7344 450.328 63.7109C451.057 58.3151 451.932 54.4049 452.953 51.9805C454.065 49.3372 455.523 47.4414 457.328 46.293C459.078 45.181 461.411 44.625 464.328 44.625C467.536 44.625 469.906 45.2721 471.438 46.5664C473.115 47.9701 473.953 50.2396 473.953 53.375C473.953 55.6901 473.543 58.5977 472.723 62.0977H457.82C457.182 65.2148 456.863 67.457 456.863 68.8242C456.863 71.3945 458.021 72.6797 460.336 72.6797C462.797 72.6797 464.255 70.6471 464.711 66.582ZM517.625 71.9141C519.43 71.9141 520.779 70.7747 521.672 68.4961C523.732 63.2096 524.762 58.2969 524.762 53.7578C524.762 51.2604 523.841 50.0117 522 50.0117C519.977 50.0117 518.391 51.862 517.242 55.5625C515.674 60.612 514.891 64.9232 514.891 68.4961C514.891 70.7747 515.802 71.9141 517.625 71.9141ZM518.637 45.6367L517.98 48.8906C519.73 46.0104 522.009 44.5703 524.816 44.5703C529.52 44.5703 531.871 47.6693 531.871 53.8672C531.871 55.2891 531.607 57.5495 531.078 60.6484C530.331 65.0781 529.401 68.5326 528.289 71.0117C526.302 75.4961 523.385 77.7383 519.539 77.7383C516.586 77.7383 514.626 76.2617 513.66 73.3086L510.707 87.6367H503.242L512.266 45.6367H518.637ZM554.883 45.6367L553.652 50.6133H553.816C555.512 46.6576 558.118 44.6797 561.637 44.6797C562.129 44.6797 562.539 44.6979 562.867 44.7344L561.254 52.8008C560.561 52.7279 559.887 52.6914 559.23 52.6914C557.225 52.6914 555.712 53.1654 554.691 54.1133C553.762 54.9883 553.078 56.4375 552.641 58.4609L548.703 77H541.375L548.102 45.6367L554.883 45.6367ZM569.582 68.0859C569.582 66.263 569.919 63.6016 570.594 60.1016C571.578 55.0521 572.809 51.4062 574.285 49.1641C576.29 46.138 579.426 44.625 583.691 44.625C590.637 44.625 594.109 47.8971 594.109 54.4414C594.109 56.6107 593.781 59.3177 593.125 62.5625C592.159 67.3021 590.883 70.9388 589.297 73.4727C587.383 76.5352 584.247 78.0664 579.891 78.0664C573.018 78.0664 569.582 74.7396 569.582 68.0859ZM583.527 50.0117C582.178 50.0117 581.112 50.6224 580.328 51.8437C579.854 52.5729 579.389 53.7943 578.934 55.5078C577.293 61.5964 576.473 65.9987 576.473 68.7148C576.473 71.3581 577.648 72.6797 580 72.6797C581.367 72.6797 582.443 72.069 583.227 70.8477C583.664 70.1367 584.12 68.9062 584.594 67.1562C586.234 61.0677 587.055 56.6927 587.055 54.0312C587.055 51.3516 585.879 50.0117 583.527 50.0117ZM619.555 50.7227C617.695 50.7227 616.292 51.9531 615.344 54.4141C613.411 59.5182 612.445 64.3398 612.445 68.8789C612.445 71.3763 613.339 72.625 615.125 72.625C616.911 72.625 618.27 71.431 619.199 69.043C619.764 67.6029 620.402 65.3242 621.113 62.207C621.897 58.7617 622.289 56.1732 622.289 54.4414C622.289 51.9622 621.378 50.7227 619.555 50.7227ZM618.488 77L619.199 73.7461C617.449 76.5898 615.171 78.0117 612.363 78.0117C607.66 78.0117 605.309 74.931 605.309 68.7695C605.309 67.1107 605.555 64.8503 606.047 61.9883C606.776 57.7773 607.733 54.3229 608.918 51.625C610.887 47.1406 613.776 44.8984 617.586 44.8984C620.539 44.8984 622.499 46.375 623.465 49.3281L626.5 35H633.992L624.914 77H618.488ZM660.039 45.6367H667.312L660.641 77H653.859L654.543 74.3203C652.046 76.7448 649.484 77.957 646.859 77.957C642.758 77.957 640.707 75.9792 640.707 72.0234C640.707 71.1302 640.889 69.8359 641.254 68.1406L646.094 45.6367H653.367L648.719 67.5391C648.5 68.5781 648.391 69.3984 648.391 70C648.391 71.75 649.229 72.625 650.906 72.625C653.148 72.625 654.68 70.7018 655.5 66.8555L660.039 45.6367ZM698.5 65.1328C698.026 69.2161 696.969 72.2878 695.328 74.3477C693.378 76.7904 690.479 78.0117 686.633 78.0117C680.089 78.0117 676.816 74.8581 676.816 68.5508C676.816 66.5091 677.154 63.6927 677.828 60.1016C678.758 55.125 679.988 51.4974 681.52 49.2187C683.561 46.1562 686.66 44.625 690.816 44.625C697.288 44.625 700.523 47.651 700.523 53.7031C700.523 54.5964 700.423 55.6445 700.223 56.8477H693.223C693.46 55.5534 693.578 54.5052 693.578 53.7031C693.578 51.2786 692.548 50.0664 690.488 50.0664C688.556 50.0664 687.116 51.8802 686.168 55.5078C684.637 61.3776 683.871 65.707 683.871 68.4961C683.871 71.2122 684.846 72.5703 686.797 72.5703C689.276 72.5703 690.807 70.0911 691.391 65.1328H698.5ZM727.691 57.1758C728.038 55.5534 728.211 54.1953 728.211 53.1016C728.211 50.9687 727.163 49.9023 725.066 49.9023C723.389 49.9023 722.122 50.7409 721.266 52.418C720.755 53.4023 720.309 54.9883 719.926 57.1758H727.691ZM725.914 66.582H732.75C732.13 74.2383 728.32 78.0664 721.32 78.0664C714.521 78.0664 711.121 74.9674 711.121 68.7695C711.121 67.4206 711.258 65.7344 711.531 63.7109C712.26 58.3151 713.135 54.4049 714.156 51.9805C715.268 49.3372 716.727 47.4414 718.531 46.293C720.281 45.181 722.615 44.625 725.531 44.625C728.74 44.625 731.109 45.2721 732.641 46.5664C734.318 47.9701 735.156 50.2396 735.156 53.375C735.156 55.6901 734.746 58.5977 733.926 62.0977H719.023C718.385 65.2148 718.066 67.457 718.066 68.8242C718.066 71.3945 719.224 72.6797 721.539 72.6797C724 72.6797 725.458 70.6471 725.914 66.582ZM784.434 48.5625C787.204 46.7031 788.59 44.8529 788.59 43.0117C788.59 41.0612 787.651 40.0859 785.773 40.0859C783.732 40.0859 782.711 41.1341 782.711 43.2305C782.711 44.1419 783.285 45.9193 784.434 48.5625ZM786.566 69.4531L781.18 57.8047C777.971 59.901 776.367 62.362 776.367 65.1875C776.367 66.8281 776.878 68.2409 777.898 69.4258C778.956 70.6654 780.296 71.2852 781.918 71.2852C783.431 71.2852 784.98 70.6745 786.566 69.4531ZM797.668 77H790.039L788.918 74.8672C786.475 77 783.677 78.0664 780.523 78.0664C777.042 78.0664 774.253 76.8268 772.156 74.3477C770.188 72.0143 769.203 69.0703 769.203 65.5156C769.203 60.0104 772.411 55.5534 778.828 52.1445C777.188 48.9362 776.367 46.1289 776.367 43.7227C776.367 41.1159 777.233 38.974 778.965 37.2969C780.715 35.6198 782.893 34.7812 785.5 34.7812C788.198 34.7812 790.395 35.4831 792.09 36.8867C793.895 38.3997 794.797 40.4779 794.797 43.1211C794.797 47.3867 792.245 51.0052 787.141 53.9766L791.324 63.1094C792.345 61.4323 793.074 58.9896 793.512 55.7812H799.609C799.354 60.5391 797.586 65.224 794.305 69.8359L797.668 77ZM847.547 50.7227C845.688 50.7227 844.284 51.9531 843.336 54.4141C841.404 59.5182 840.438 64.3398 840.438 68.8789C840.438 71.3763 841.331 72.625 843.117 72.625C844.904 72.625 846.262 71.431 847.191 69.043C847.757 67.6029 848.395 65.3242 849.105 62.207C849.889 58.7617 850.281 56.1732 850.281 54.4414C850.281 51.9622 849.37 50.7227 847.547 50.7227ZM846.48 77L847.191 73.7461C845.441 76.5898 843.163 78.0117 840.355 78.0117C835.652 78.0117 833.301 74.931 833.301 68.7695C833.301 67.1107 833.547 64.8503 834.039 61.9883C834.768 57.7773 835.725 54.3229 836.91 51.625C838.879 47.1406 841.768 44.8984 845.578 44.8984C848.531 44.8984 850.491 46.375 851.457 49.3281L854.492 35H861.984L852.906 77H846.48ZM885.707 57.1758C886.053 55.5534 886.227 54.1953 886.227 53.1016C886.227 50.9687 885.178 49.9023 883.082 49.9023C881.405 49.9023 880.138 50.7409 879.281 52.418C878.771 53.4023 878.324 54.9883 877.941 57.1758H885.707ZM883.93 66.582H890.766C890.146 74.2383 886.336 78.0664 879.336 78.0664C872.536 78.0664 869.137 74.9674 869.137 68.7695C869.137 67.4206 869.273 65.7344 869.547 63.7109C870.276 58.3151 871.151 54.4049 872.172 51.9805C873.284 49.3372 874.742 47.4414 876.547 46.293C878.297 45.181 880.63 44.625 883.547 44.625C886.755 44.625 889.125 45.2721 890.656 46.5664C892.333 47.9701 893.172 50.2396 893.172 53.375C893.172 55.6901 892.762 58.5977 891.941 62.0977H877.039C876.401 65.2148 876.082 67.457 876.082 68.8242C876.082 71.3945 877.24 72.6797 879.555 72.6797C882.016 72.6797 883.474 70.6471 883.93 66.582ZM902.703 77L911.617 35H919L910.031 77H902.703ZM932.387 41.2617L933.672 35L941.055 35L939.715 41.2617H932.387ZM924.758 77L931.43 45.6367H938.758L932.086 77H924.758ZM960.266 77H952.035L949.656 45.6367H956.957L957.504 68.7695L966.035 45.6367H973.801L960.266 77ZM997.605 57.1758C997.952 55.5534 998.125 54.1953 998.125 53.1016C998.125 50.9687 997.077 49.9023 994.98 49.9023C993.303 49.9023 992.036 50.7409 991.18 52.418C990.669 53.4023 990.223 54.9883 989.84 57.1758H997.605ZM995.828 66.582H1002.66C1002.04 74.2383 998.234 78.0664 991.234 78.0664C984.435 78.0664 981.035 74.9674 981.035 68.7695C981.035 67.4206 981.172 65.7344 981.445 63.7109C982.174 58.3151 983.049 54.4049 984.07 51.9805C985.182 49.3372 986.641 47.4414 988.445 46.293C990.195 45.181 992.529 44.625 995.445 44.625C998.654 44.625 1001.02 45.2721 1002.55 46.5664C1004.23 47.9701 1005.07 50.2396 1005.07 53.375C1005.07 55.6901 1004.66 58.5977 1003.84 62.0977H988.938C988.299 65.2148 987.98 67.457 987.98 68.8242C987.98 71.3945 989.138 72.6797 991.453 72.6797C993.914 72.6797 995.372 70.6471 995.828 66.582ZM1028.11 45.6367L1026.88 50.6133H1027.04C1028.74 46.6576 1031.35 44.6797 1034.86 44.6797C1035.36 44.6797 1035.77 44.6979 1036.09 44.7344L1034.48 52.8008C1033.79 52.7279 1033.11 52.6914 1032.46 52.6914C1030.45 52.6914 1028.94 53.1654 1027.92 54.1133C1026.99 54.9883 1026.3 56.4375 1025.87 58.4609L1021.93 77H1014.6L1021.33 45.6367H1028.11ZM1069.1 77L1067.54 45.6367H1074.49L1074.71 68.332L1082.61 45.6367H1088.65L1088.76 68.8242L1096.61 45.6367H1103.94L1091.74 77H1083.62L1083.57 57.4492L1076.68 77H1069.1ZM1111.8 68.0859C1111.8 66.263 1112.14 63.6016 1112.81 60.1016C1113.8 55.0521 1115.03 51.4062 1116.5 49.1641C1118.51 46.138 1121.64 44.625 1125.91 44.625C1132.86 44.625 1136.33 47.8971 1136.33 54.4414C1136.33 56.6107 1136 59.3177 1135.34 62.5625C1134.38 67.3021 1133.1 70.9388 1131.52 73.4727C1129.6 76.5352 1126.47 78.0664 1122.11 78.0664C1115.24 78.0664 1111.8 74.7396 1111.8 68.0859ZM1125.75 50.0117C1124.4 50.0117 1123.33 50.6224 1122.55 51.8437C1122.07 52.5729 1121.61 53.7943 1121.15 55.5078C1119.51 61.5964 1118.69 65.9987 1118.69 68.7148C1118.69 71.3581 1119.87 72.6797 1122.22 72.6797C1123.59 72.6797 1124.66 72.069 1125.45 70.8477C1125.88 70.1367 1126.34 68.9062 1126.81 67.1562C1128.45 61.0677 1129.27 56.6927 1129.27 54.0312C1129.27 51.3516 1128.1 50.0117 1125.75 50.0117ZM1159.42 45.6367L1158.19 50.6133H1158.36C1160.05 46.6576 1162.66 44.6797 1166.18 44.6797C1166.67 44.6797 1167.08 44.6979 1167.41 44.7344L1165.79 52.8008C1165.1 52.7279 1164.43 52.6914 1163.77 52.6914C1161.76 52.6914 1160.25 53.1654 1159.23 54.1133C1158.3 54.9883 1157.62 56.4375 1157.18 58.4609L1153.24 77H1145.91L1152.64 45.6367H1159.42ZM1173.55 77L1182.46 35H1189.84L1180.88 77H1173.55ZM1211.46 50.7227C1209.6 50.7227 1208.2 51.9531 1207.25 54.4141C1205.32 59.5182 1204.35 64.3398 1204.35 68.8789C1204.35 71.3763 1205.24 72.625 1207.03 72.625C1208.82 72.625 1210.18 71.431 1211.11 69.043C1211.67 67.6029 1212.31 65.3242 1213.02 62.207C1213.8 58.7617 1214.2 56.1732 1214.2 54.4414C1214.2 51.9622 1213.28 50.7227 1211.46 50.7227ZM1210.39 77L1211.11 73.7461C1209.36 76.5898 1207.08 78.0117 1204.27 78.0117C1199.57 78.0117 1197.21 74.931 1197.21 68.7695C1197.21 67.1107 1197.46 64.8503 1197.95 61.9883C1198.68 57.7773 1199.64 54.3229 1200.82 51.625C1202.79 47.1406 1205.68 44.8984 1209.49 44.8984C1212.45 44.8984 1214.4 46.375 1215.37 49.3281L1218.41 35H1225.9L1216.82 77H1210.39ZM1236.36 77L1234.8 45.6367H1241.75L1241.96 68.332L1249.87 45.6367L1255.91 45.6367L1256.02 68.8242L1263.87 45.6367H1271.2L1259 77H1250.88L1250.82 57.4492L1243.93 77H1236.36ZM1285.13 41.2617L1286.41 35H1293.8L1292.46 41.2617H1285.13ZM1277.5 77L1284.17 45.6367H1291.5L1284.83 77H1277.5ZM1315.41 50.7227C1313.55 50.7227 1312.15 51.9531 1311.2 54.4141C1309.27 59.5182 1308.3 64.3398 1308.3 68.8789C1308.3 71.3763 1309.2 72.625 1310.98 72.625C1312.77 72.625 1314.13 71.431 1315.06 69.043C1315.62 67.6029 1316.26 65.3242 1316.97 62.207C1317.76 58.7617 1318.15 56.1732 1318.15 54.4414C1318.15 51.9622 1317.24 50.7227 1315.41 50.7227ZM1314.35 77L1315.06 73.7461C1313.31 76.5898 1311.03 78.0117 1308.22 78.0117C1303.52 78.0117 1301.17 74.931 1301.17 68.7695C1301.17 67.1107 1301.41 64.8503 1301.91 61.9883C1302.64 57.7773 1303.59 54.3229 1304.78 51.625C1306.75 47.1406 1309.64 44.8984 1313.45 44.8984C1316.4 44.8984 1318.36 46.375 1319.32 49.3281L1322.36 35H1329.85L1320.77 77L1314.35 77ZM1353.57 57.1758C1353.92 55.5534 1354.09 54.1953 1354.09 53.1016C1354.09 50.9687 1353.05 49.9023 1350.95 49.9023C1349.27 49.9023 1348.01 50.7409 1347.15 52.418C1346.64 53.4023 1346.19 54.9883 1345.81 57.1758H1353.57ZM1351.8 66.582H1358.63C1358.01 74.2383 1354.2 78.0664 1347.2 78.0664C1340.4 78.0664 1337 74.9674 1337 68.7695C1337 67.4206 1337.14 65.7344 1337.41 63.7109C1338.14 58.3151 1339.02 54.4049 1340.04 51.9805C1341.15 49.3372 1342.61 47.4414 1344.41 46.293C1346.16 45.181 1348.5 44.625 1351.41 44.625C1354.62 44.625 1356.99 45.2721 1358.52 46.5664C1360.2 47.9701 1361.04 50.2396 1361.04 53.375C1361.04 55.6901 1360.63 58.5977 1359.81 62.0977H1344.91C1344.27 65.2148 1343.95 67.457 1343.95 68.8242C1343.95 71.3945 1345.11 72.6797 1347.42 72.6797C1349.88 72.6797 1351.34 70.6471 1351.8 66.582Z" fill="#FEFEFE"/>
</svg>
