<svg width="40" height="40" viewBox="0 0 40 40" fill="none" xmlns="http://www.w3.org/2000/svg">
<g clip-path="url(#clip0_1783_12218)">
<path d="M24.5713 17.1434C24.6856 17.1434 24.7984 17.1692 24.9014 17.2186C25.0044 17.2681 25.0946 17.3404 25.166 17.4296L31.2617 25.0487C31.3698 25.1839 31.4288 25.3523 31.4287 25.5253V28.5722C31.4287 29.3803 31.1075 30.1559 30.5362 30.7274C29.9646 31.299 29.1891 31.62 28.3809 31.62H11.6191C10.8109 31.62 10.0354 31.299 9.46387 30.7274C8.89243 30.1559 8.57129 29.3804 8.57129 28.5722V25.5253C8.57121 25.3522 8.63019 25.1839 8.73828 25.0487L14.833 17.4296C14.9044 17.3404 14.9957 17.2681 15.0987 17.2186C15.2016 17.1692 15.3145 17.1434 15.4287 17.1434H24.5713ZM21.166 21.1854C20.6092 20.9548 19.9965 20.894 19.4053 21.0116C18.8141 21.1292 18.271 21.4194 17.8447 21.8456C17.4186 22.2718 17.1284 22.815 17.0108 23.4061C16.8932 23.9973 16.954 24.61 17.1846 25.1669C17.4153 25.7238 17.8055 26.2002 18.3067 26.5351C18.8078 26.8699 19.3973 27.0487 20 27.0487C20.8082 27.0487 21.5838 26.7277 22.1553 26.1561C22.7267 25.5846 23.0479 24.8091 23.0479 24.0009C23.0479 23.3981 22.869 22.8087 22.5342 22.3075C22.1993 21.8063 21.7229 21.4161 21.166 21.1854ZM28.0235 8.57214C28.5841 8.5722 29.1339 8.72702 29.6123 9.01941C30.1179 9.34986 30.5201 9.81691 30.7715 10.3661C31.0229 10.9152 31.1134 11.5244 31.0332 12.1229L30.7412 14.7518C30.7205 14.9382 30.6319 15.1102 30.4922 15.2352C30.3525 15.3603 30.1719 15.4296 29.9844 15.4296H26.6895C26.5198 15.4295 26.3545 15.3729 26.2207 15.2684C26.0869 15.164 25.9924 15.0171 25.9512 14.8524L25.333 12.3817H14.666L14.0479 14.8524C14.0066 15.0171 13.9121 15.164 13.7783 15.2684C13.6445 15.3729 13.4793 15.4295 13.3096 15.4296H10.0186C9.83038 15.4307 9.64845 15.3622 9.50781 15.2372C9.36719 15.112 9.27762 14.939 9.25684 14.7518L8.94727 11.9569C8.88477 11.3985 8.97848 10.8338 9.2168 10.3251C9.4898 9.78646 9.90962 9.33537 10.4277 9.02527C10.9457 8.71534 11.541 8.55823 12.1445 8.57214H28.0235Z" fill="#B80022"/>
</g>
<defs>
<clipPath id="clip0_1783_12218">
<rect width="24" height="24" fill="white" transform="translate(8 8)"/>
</clipPath>
</defs>
</svg>
