<svg width="44" height="46" viewBox="0 0 44 46" fill="none" xmlns="http://www.w3.org/2000/svg">
<g filter="url(#filter0_dddd_1792_12270)">
<rect x="2" y="1" width="40" height="40" rx="20" fill="#FEFEFE"/>
<g clip-path="url(#clip0_1792_12270)">
<path d="M26.5713 18.1434C26.6856 18.1434 26.7984 18.1692 26.9014 18.2186C27.0044 18.2681 27.0946 18.3404 27.166 18.4296L33.2617 26.0487C33.3698 26.1839 33.4288 26.3523 33.4287 26.5253V29.5722C33.4287 30.3803 33.1075 31.1559 32.5362 31.7274C31.9646 32.299 31.1891 32.62 30.3809 32.62H13.6191C12.8109 32.62 12.0354 32.299 11.4639 31.7274C10.8924 31.1559 10.5713 30.3804 10.5713 29.5722V26.5253C10.5712 26.3522 10.6302 26.1839 10.7383 26.0487L16.833 18.4296C16.9044 18.3404 16.9957 18.2681 17.0987 18.2186C17.2016 18.1692 17.3145 18.1434 17.4287 18.1434H26.5713ZM23.166 22.1854C22.6092 21.9548 21.9965 21.894 21.4053 22.0116C20.8141 22.1292 20.271 22.4194 19.8447 22.8456C19.4186 23.2718 19.1284 23.815 19.0108 24.4061C18.8932 24.9973 18.954 25.61 19.1846 26.1669C19.4153 26.7238 19.8055 27.2002 20.3067 27.5351C20.8078 27.8699 21.3973 28.0487 22 28.0487C22.8082 28.0487 23.5838 27.7277 24.1553 27.1561C24.7267 26.5846 25.0479 25.8091 25.0479 25.0009C25.0479 24.3981 24.869 23.8087 24.5342 23.3075C24.1993 22.8063 23.7229 22.4161 23.166 22.1854ZM30.0235 9.57214C30.5841 9.5722 31.1339 9.72702 31.6123 10.0194C32.1179 10.3499 32.5201 10.8169 32.7715 11.3661C33.0229 11.9152 33.1134 12.5244 33.0332 13.1229L32.7412 15.7518C32.7205 15.9382 32.6319 16.1102 32.4922 16.2352C32.3525 16.3603 32.1719 16.4296 31.9844 16.4296H28.6895C28.5198 16.4295 28.3545 16.3729 28.2207 16.2684C28.0869 16.164 27.9924 16.0171 27.9512 15.8524L27.333 13.3817H16.666L16.0479 15.8524C16.0066 16.0171 15.9121 16.164 15.7783 16.2684C15.6445 16.3729 15.4793 16.4295 15.3096 16.4296H12.0186C11.8304 16.4307 11.6484 16.3622 11.5078 16.2372C11.3672 16.112 11.2776 15.939 11.2568 15.7518L10.9473 12.9569C10.8848 12.3985 10.9785 11.8338 11.2168 11.3251C11.4898 10.7865 11.9096 10.3354 12.4277 10.0253C12.9457 9.71534 13.541 9.55823 14.1445 9.57214H30.0235Z" fill="#B80022"/>
</g>
</g>
<defs>
<filter id="filter0_dddd_1792_12270" x="0" y="0" width="44" height="46" filterUnits="userSpaceOnUse" color-interpolation-filters="sRGB">
<feFlood flood-opacity="0" result="BackgroundImageFix"/>
<feColorMatrix in="SourceAlpha" type="matrix" values="0 0 0 0 0 0 0 0 0 0 0 0 0 0 0 0 0 0 127 0" result="hardAlpha"/>
<feOffset/>
<feGaussianBlur stdDeviation="0.5"/>
<feColorMatrix type="matrix" values="0 0 0 0 0 0 0 0 0 0 0 0 0 0 0 0 0 0 0.04 0"/>
<feBlend mode="normal" in2="BackgroundImageFix" result="effect1_dropShadow_1792_12270"/>
<feColorMatrix in="SourceAlpha" type="matrix" values="0 0 0 0 0 0 0 0 0 0 0 0 0 0 0 0 0 0 127 0" result="hardAlpha"/>
<feOffset dy="1"/>
<feGaussianBlur stdDeviation="0.5"/>
<feColorMatrix type="matrix" values="0 0 0 0 0 0 0 0 0 0 0 0 0 0 0 0 0 0 0.03 0"/>
<feBlend mode="normal" in2="effect1_dropShadow_1792_12270" result="effect2_dropShadow_1792_12270"/>
<feColorMatrix in="SourceAlpha" type="matrix" values="0 0 0 0 0 0 0 0 0 0 0 0 0 0 0 0 0 0 127 0" result="hardAlpha"/>
<feOffset dy="2"/>
<feGaussianBlur stdDeviation="1"/>
<feColorMatrix type="matrix" values="0 0 0 0 0 0 0 0 0 0 0 0 0 0 0 0 0 0 0.02 0"/>
<feBlend mode="normal" in2="effect2_dropShadow_1792_12270" result="effect3_dropShadow_1792_12270"/>
<feColorMatrix in="SourceAlpha" type="matrix" values="0 0 0 0 0 0 0 0 0 0 0 0 0 0 0 0 0 0 127 0" result="hardAlpha"/>
<feOffset dy="3"/>
<feGaussianBlur stdDeviation="1"/>
<feColorMatrix type="matrix" values="0 0 0 0 0 0 0 0 0 0 0 0 0 0 0 0 0 0 0.01 0"/>
<feBlend mode="normal" in2="effect3_dropShadow_1792_12270" result="effect4_dropShadow_1792_12270"/>
<feBlend mode="normal" in="SourceGraphic" in2="effect4_dropShadow_1792_12270" result="shape"/>
</filter>
<clipPath id="clip0_1792_12270">
<rect width="24" height="24" fill="white" transform="translate(10 9)"/>
</clipPath>
</defs>
</svg>
