<svg width="32" height="32" viewBox="0 0 32 32" fill="none" xmlns="http://www.w3.org/2000/svg">
<defs>
<linearGradient id="telephoneGradientBlue" x1="0%" y1="0%" x2="100%" y2="100%">
<stop offset="0%" stop-color="#1877F2" />
<stop offset="100%" stop-color="#0068FF" />
</linearGradient>
</defs>
<path d="M20.5714 13.1435C20.6857 13.1435 20.7985 13.1693 20.9015 13.2187C21.0045 13.2682 21.0947 13.3405 21.1661 13.4297L27.2618 21.0488C27.3699 21.184 27.4289 21.3524 27.4288 21.5254V24.5723C27.4288 25.3804 27.1076 26.156 26.5363 26.7275C25.9647 27.2991 25.1892 27.6201 24.381 27.6201H7.61926C6.81099 27.6201 6.03553 27.2991 5.46399 26.7275C4.89255 26.156 4.57141 25.3805 4.57141 24.5723V21.5254C4.57133 21.3523 4.63031 21.184 4.7384 21.0488L10.8331 13.4297C10.9045 13.3405 10.9958 13.2682 11.0988 13.2187C11.2017 13.1693 11.3146 13.1435 11.4288 13.1435H20.5714ZM17.1661 17.1855C16.6093 16.9549 15.9966 16.8941 15.4054 17.0117C14.8142 17.1293 14.2711 17.4195 13.8448 17.8457C13.4187 18.2719 13.1285 18.8151 13.0109 19.4062C12.8933 19.9974 12.9541 20.6101 13.1847 21.167C13.4154 21.7239 13.8056 22.2003 14.3068 22.5352C14.8079 22.87 15.3974 23.0488 16.0001 23.0488C16.8083 23.0488 17.5839 22.7278 18.1554 22.1562C18.7268 21.5847 19.048 20.8092 19.048 20.001C19.048 19.3982 18.8691 18.8088 18.5343 18.3076C18.1994 17.8064 17.723 17.4162 17.1661 17.1855ZM24.0236 4.57226C24.5842 4.57232 25.134 4.72714 25.6124 5.01953C26.118 5.34998 26.5202 5.81703 26.7716 6.36621C27.023 6.9153 27.1135 7.52448 27.0333 8.12304L26.7413 10.7519C26.7206 10.9383 26.632 11.1103 26.4923 11.2353C26.3526 11.3604 26.172 11.4297 25.9845 11.4297H22.6896C22.5199 11.4296 22.3546 11.373 22.2208 11.2685C22.087 11.1641 21.9925 11.0172 21.9513 10.8525L21.3331 8.38183H10.6661L10.048 10.8525C10.0067 11.0172 9.91225 11.1641 9.77844 11.2685C9.64462 11.373 9.47944 11.4296 9.30969 11.4297H6.01868C5.8305 11.4308 5.64857 11.3623 5.50793 11.2373C5.36731 11.1121 5.27774 10.9391 5.25696 10.7519L4.94739 7.95703C4.88489 7.39867 4.9786 6.83397 5.21692 6.32519C5.48992 5.78658 5.90974 5.33549 6.42786 5.02539C6.94587 4.71546 7.54117 4.55835 8.14465 4.57226H24.0236Z" fill="url(#telephoneGradientBlue)"/>
</svg>
