<svg width="175" height="176" viewBox="0 0 175 176" fill="none" xmlns="http://www.w3.org/2000/svg">
<path d="M144.581 14C144.644 14 144.703 14.031 144.737 14.083L153.375 27.0869C153.457 27.2109 153.368 27.3767 153.22 27.377H60.2646V123.246H67.165L109.914 37.2266C110.369 36.3111 111.445 35.8518 112.439 36.2061C128.157 41.8058 142.773 55.6114 149.544 73.3438C156.349 91.167 155.207 112.901 139.487 134.156C138.767 135.131 137.282 135.316 136.362 134.369L129.525 127.331C128.838 126.623 128.769 125.556 129.282 124.773C132.573 119.754 134.715 115.934 136.205 111.924C137.515 108.398 138.346 104.655 138.966 99.7324H95.2227L83.6416 125.428C83.3099 126.163 82.5775 126.636 81.7705 126.637H71.3721V134.207C71.3719 134.31 71.2932 134.393 71.1904 134.394C64.1841 134.398 49.7228 134.676 46.9355 134.394C44.3681 134.133 42.4932 130.829 42.4932 127.705V27.377H22.6865C22.5835 27.377 22.5 27.2935 22.5 27.1904V14.1865C22.5001 14.0836 22.5835 14 22.6865 14H144.581ZM112.064 57.8086C109.628 63.0545 106.31 69.8647 103.594 75.3799C102.237 78.1339 101.033 80.5589 100.169 82.2949C99.7368 83.1628 99.3895 83.8586 99.1504 84.3369C99.0309 84.576 98.9385 84.7608 98.876 84.8857C98.8447 84.9481 98.8206 84.9956 98.8047 85.0273C98.7967 85.0432 98.7911 85.0555 98.7871 85.0635C98.7852 85.0674 98.7832 85.0703 98.7822 85.0723L98.7812 85.0742V85.0752L96.2285 90.166L101.924 90.1572L134.135 90.1074L137.639 90.1025V86.5986C137.639 80.5931 134.947 74.3782 131.202 69.123C127.429 63.8286 122.318 59.1247 116.917 56.2012L113.636 54.4248L112.064 57.8086Z" fill="#B80022"/>
<mask id="path-2-outside-1_730_11" maskUnits="userSpaceOnUse" x="155.002" y="145" width="7" height="7" fill="black">
<rect fill="white" x="155.002" y="145" width="7" height="7"/>
<path d="M158.702 151.108C157.955 151.108 157.325 150.854 156.812 150.345C156.299 149.832 156.042 149.202 156.042 148.455C156.042 147.708 156.299 147.08 156.812 146.572C157.325 146.059 157.955 145.802 158.702 145.802C159.449 145.802 160.079 146.059 160.592 146.572C161.105 147.08 161.361 147.708 161.361 148.455C161.361 149.202 161.105 149.832 160.592 150.345C160.079 150.854 159.449 151.108 158.702 151.108ZM158.702 146.234C158.081 146.234 157.554 146.45 157.122 146.882C156.69 147.31 156.474 147.834 156.474 148.455C156.474 149.076 156.69 149.603 157.122 150.035C157.554 150.462 158.081 150.676 158.702 150.676C159.323 150.676 159.849 150.462 160.281 150.035C160.713 149.603 160.929 149.076 160.929 148.455C160.929 147.834 160.713 147.31 160.281 146.882C159.849 146.45 159.323 146.234 158.702 146.234ZM159.161 148.59L159.917 149.967H159.424L158.661 148.59H158.108V149.967H157.676V146.984H158.931C159.615 146.984 159.957 147.247 159.957 147.773C159.957 148.021 159.885 148.217 159.741 148.361C159.602 148.505 159.408 148.581 159.161 148.59ZM158.85 147.416H158.108V148.158H158.567C158.913 148.158 159.125 148.151 159.201 148.138C159.417 148.097 159.525 147.992 159.525 147.821C159.525 147.645 159.451 147.528 159.303 147.47C159.213 147.434 159.062 147.416 158.85 147.416Z"/>
</mask>
<path d="M158.702 151.108C157.955 151.108 157.325 150.854 156.812 150.345C156.299 149.832 156.042 149.202 156.042 148.455C156.042 147.708 156.299 147.08 156.812 146.572C157.325 146.059 157.955 145.802 158.702 145.802C159.449 145.802 160.079 146.059 160.592 146.572C161.105 147.08 161.361 147.708 161.361 148.455C161.361 149.202 161.105 149.832 160.592 150.345C160.079 150.854 159.449 151.108 158.702 151.108ZM158.702 146.234C158.081 146.234 157.554 146.45 157.122 146.882C156.69 147.31 156.474 147.834 156.474 148.455C156.474 149.076 156.69 149.603 157.122 150.035C157.554 150.462 158.081 150.676 158.702 150.676C159.323 150.676 159.849 150.462 160.281 150.035C160.713 149.603 160.929 149.076 160.929 148.455C160.929 147.834 160.713 147.31 160.281 146.882C159.849 146.45 159.323 146.234 158.702 146.234ZM159.161 148.59L159.917 149.967H159.424L158.661 148.59H158.108V149.967H157.676V146.984H158.931C159.615 146.984 159.957 147.247 159.957 147.773C159.957 148.021 159.885 148.217 159.741 148.361C159.602 148.505 159.408 148.581 159.161 148.59ZM158.85 147.416H158.108V148.158H158.567C158.913 148.158 159.125 148.151 159.201 148.138C159.417 148.097 159.525 147.992 159.525 147.821C159.525 147.645 159.451 147.528 159.303 147.47C159.213 147.434 159.062 147.416 158.85 147.416Z" fill="#B80022"/>
<path d="M156.812 150.345L156.671 150.487L156.671 150.487L156.812 150.345ZM156.812 146.572L156.953 146.714L156.953 146.713L156.812 146.572ZM160.592 146.572L160.451 146.713L160.451 146.714L160.592 146.572ZM160.592 150.345L160.733 150.487L160.733 150.487L160.592 150.345ZM157.122 146.882L157.263 147.025L157.264 147.024L157.122 146.882ZM157.122 150.035L156.981 150.176L156.982 150.177L157.122 150.035ZM160.281 150.035L160.422 150.177L160.423 150.176L160.281 150.035ZM160.281 146.882L160.14 147.024L160.141 147.025L160.281 146.882ZM159.161 148.59L159.154 148.39L158.83 148.402L158.986 148.687L159.161 148.59ZM159.917 149.967V150.167H160.255L160.092 149.871L159.917 149.967ZM159.424 149.967L159.249 150.064L159.306 150.167H159.424V149.967ZM158.661 148.59L158.836 148.493L158.779 148.39H158.661V148.59ZM158.108 148.59V148.39H157.908V148.59H158.108ZM158.108 149.967V150.167H158.308V149.967H158.108ZM157.676 149.967H157.476V150.167H157.676V149.967ZM157.676 146.984V146.784H157.476V146.984H157.676ZM159.741 148.361L159.6 148.219L159.598 148.222L159.741 148.361ZM158.108 147.416V147.216H157.908V147.416H158.108ZM158.108 148.158H157.908V148.358H158.108V148.158ZM159.201 148.138L159.236 148.335L159.238 148.335L159.201 148.138ZM159.303 147.47L159.228 147.655L159.229 147.656L159.303 147.47ZM158.702 151.108V150.908C158.006 150.908 157.427 150.673 156.953 150.203L156.812 150.345L156.671 150.487C157.223 151.034 157.904 151.308 158.702 151.308V151.108ZM156.812 150.345L156.953 150.204C156.479 149.73 156.242 149.151 156.242 148.455H156.042H155.842C155.842 149.254 156.119 149.935 156.671 150.487L156.812 150.345ZM156.042 148.455H156.242C156.242 147.76 156.479 147.184 156.953 146.714L156.812 146.572L156.671 146.43C156.119 146.977 155.842 147.657 155.842 148.455H156.042ZM156.812 146.572L156.953 146.713C157.428 146.239 158.006 146.002 158.702 146.002V145.802V145.602C157.904 145.602 157.222 145.879 156.671 146.431L156.812 146.572ZM158.702 145.802V146.002C159.398 146.002 159.976 146.239 160.451 146.713L160.592 146.572L160.733 146.431C160.182 145.879 159.5 145.602 158.702 145.602V145.802ZM160.592 146.572L160.451 146.714C160.925 147.184 161.161 147.76 161.161 148.455H161.361H161.561C161.561 147.657 161.285 146.977 160.733 146.43L160.592 146.572ZM161.361 148.455H161.161C161.161 149.151 160.925 149.73 160.451 150.204L160.592 150.345L160.733 150.487C161.285 149.935 161.561 149.254 161.561 148.455H161.361ZM160.592 150.345L160.451 150.203C159.977 150.673 159.398 150.908 158.702 150.908V151.108V151.308C159.5 151.308 160.181 151.034 160.733 150.487L160.592 150.345ZM158.702 146.234V146.034C158.029 146.034 157.451 146.271 156.981 146.741L157.122 146.882L157.264 147.024C157.658 146.63 158.133 146.434 158.702 146.434V146.234ZM157.122 146.882L156.982 146.74C156.511 147.206 156.274 147.782 156.274 148.455H156.474H156.674C156.674 147.886 156.87 147.414 157.263 147.025L157.122 146.882ZM156.474 148.455H156.274C156.274 149.128 156.511 149.706 156.981 150.176L157.122 150.035L157.264 149.893C156.87 149.5 156.674 149.024 156.674 148.455H156.474ZM157.122 150.035L156.982 150.177C157.452 150.642 158.03 150.876 158.702 150.876V150.676V150.476C158.132 150.476 157.657 150.282 157.263 149.893L157.122 150.035ZM158.702 150.676V150.876C159.374 150.876 159.952 150.642 160.422 150.177L160.281 150.035L160.141 149.893C159.747 150.282 159.272 150.476 158.702 150.476V150.676ZM160.281 150.035L160.423 150.176C160.893 149.706 161.129 149.128 161.129 148.455H160.929H160.729C160.729 149.024 160.534 149.5 160.14 149.893L160.281 150.035ZM160.929 148.455H161.129C161.129 147.782 160.893 147.206 160.422 146.74L160.281 146.882L160.141 147.025C160.534 147.414 160.729 147.886 160.729 148.455H160.929ZM160.281 146.882L160.423 146.741C159.953 146.271 159.375 146.034 158.702 146.034V146.234V146.434C159.271 146.434 159.746 146.63 160.14 147.024L160.281 146.882ZM159.161 148.59L158.986 148.687L159.742 150.064L159.917 149.967L160.092 149.871L159.336 148.494L159.161 148.59ZM159.917 149.967V149.767H159.424V149.967V150.167H159.917V149.967ZM159.424 149.967L159.599 149.87L158.836 148.493L158.661 148.59L158.487 148.687L159.249 150.064L159.424 149.967ZM158.661 148.59V148.39H158.108V148.59V148.79H158.661V148.59ZM158.108 148.59H157.908V149.967H158.108H158.308V148.59H158.108ZM158.108 149.967V149.767H157.676V149.967V150.167H158.108V149.967ZM157.676 149.967H157.876V146.984H157.676H157.476V149.967H157.676ZM157.676 146.984V147.184H158.931V146.984V146.784H157.676V146.984ZM158.931 146.984V147.184C159.253 147.184 159.458 147.247 159.579 147.34C159.69 147.425 159.757 147.557 159.757 147.773H159.957H160.157C160.157 147.463 160.054 147.201 159.823 147.023C159.602 146.852 159.294 146.784 158.931 146.784V146.984ZM159.957 147.773H159.757C159.757 147.98 159.699 148.121 159.6 148.219L159.741 148.361L159.883 148.502C160.072 148.313 160.157 148.062 160.157 147.773H159.957ZM159.741 148.361L159.598 148.222C159.502 148.32 159.362 148.383 159.154 148.39L159.161 148.59L159.168 148.79C159.455 148.78 159.702 148.689 159.885 148.5L159.741 148.361ZM158.85 147.416V147.216H158.108V147.416V147.616H158.85V147.416ZM158.108 147.416H157.908V148.158H158.108H158.308V147.416H158.108ZM158.108 148.158V148.358H158.567V148.158V147.958H158.108V148.158ZM158.567 148.158V148.358C158.906 148.358 159.138 148.352 159.236 148.335L159.201 148.138L159.167 147.941C159.112 147.951 158.921 147.958 158.567 147.958V148.158ZM159.201 148.138L159.238 148.335C159.368 148.31 159.492 148.262 159.584 148.171C159.682 148.076 159.725 147.952 159.725 147.821H159.525H159.325C159.325 147.86 159.315 147.875 159.305 147.885C159.289 147.901 159.25 147.925 159.165 147.941L159.201 148.138ZM159.525 147.821H159.725C159.725 147.705 159.701 147.592 159.639 147.494C159.575 147.395 159.483 147.326 159.376 147.284L159.303 147.47L159.229 147.656C159.27 147.672 159.29 147.691 159.301 147.709C159.313 147.727 159.325 147.761 159.325 147.821H159.525ZM159.303 147.47L159.377 147.284C159.249 147.233 159.064 147.216 158.85 147.216V147.416V147.616C159.059 147.616 159.177 147.635 159.228 147.655L159.303 147.47Z" fill="#F7E5E8" mask="url(#path-2-outside-1_730_11)"/>
<path d="M100.976 148.312H96.64V151.704H100.832V153.08H96.64V159H95.136V146.936H100.976V148.312ZM102.826 151.512H104.266V155.656C104.266 157.16 104.842 157.912 105.994 157.912C107.146 157.912 107.722 157.16 107.722 155.656V151.512H109.162V155.816C109.162 156.893 108.906 157.725 108.394 158.312C107.85 158.941 107.05 159.256 105.994 159.256C104.938 159.256 104.138 158.941 103.594 158.312C103.082 157.725 102.826 156.893 102.826 155.816V151.512ZM112.934 151.512V152.728H112.982C113.366 151.768 114.048 151.288 115.03 151.288C115.435 151.288 115.83 151.411 116.214 151.656L115.558 152.968C115.323 152.765 115.03 152.664 114.678 152.664C113.515 152.664 112.934 153.549 112.934 155.32V159H111.494V151.512H112.934ZM118.767 151.512V152.52H118.799C119.258 151.699 120.01 151.288 121.055 151.288C122.826 151.288 123.711 152.371 123.711 154.536V159H122.271V154.712C122.271 153.987 122.18 153.475 121.999 153.176C121.754 152.771 121.295 152.568 120.623 152.568C119.812 152.568 119.274 152.899 119.007 153.56C118.847 153.965 118.767 154.632 118.767 155.56V159H117.327V151.512H118.767ZM127.782 151.512V159H126.342V151.512H127.782ZM127.062 147.08C127.339 147.08 127.574 147.181 127.766 147.384C127.958 147.576 128.054 147.811 128.054 148.088C128.054 148.365 127.958 148.6 127.766 148.792C127.574 148.973 127.339 149.064 127.062 149.064C126.785 149.064 126.55 148.973 126.358 148.792C126.166 148.6 126.07 148.365 126.07 148.088C126.07 147.811 126.166 147.576 126.358 147.384C126.55 147.181 126.785 147.08 127.062 147.08ZM132.052 152.856V159H130.612V152.856H129.828V151.512H130.612V148.648H132.052V151.512H133.46V152.856H132.052ZM134.504 151.512H135.944V155.656C135.944 157.16 136.52 157.912 137.672 157.912C138.824 157.912 139.4 157.16 139.4 155.656V151.512H140.84V155.816C140.84 156.893 140.584 157.725 140.072 158.312C139.528 158.941 138.728 159.256 137.672 159.256C136.616 159.256 135.816 158.941 135.272 158.312C134.76 157.725 134.504 156.893 134.504 155.816V151.512ZM144.612 151.512V152.728H144.66C145.044 151.768 145.726 151.288 146.708 151.288C147.113 151.288 147.508 151.411 147.892 151.656L147.236 152.968C147.001 152.765 146.708 152.664 146.356 152.664C145.193 152.664 144.612 153.549 144.612 155.32V159H143.172V151.512H144.612ZM155.581 155.496H149.869C149.88 156.168 150.093 156.749 150.509 157.24C150.925 157.731 151.464 157.976 152.125 157.976C153.032 157.976 153.778 157.491 154.365 156.52L155.581 157.208C155.229 157.848 154.744 158.349 154.125 158.712C153.517 159.075 152.845 159.256 152.109 159.256C150.989 159.256 150.088 158.877 149.405 158.12C148.754 157.395 148.429 156.461 148.429 155.32C148.429 154.115 148.733 153.155 149.341 152.44C149.981 151.672 150.893 151.288 152.077 151.288C153.218 151.288 154.104 151.672 154.733 152.44C155.298 153.155 155.581 154.099 155.581 155.272V155.496ZM149.949 154.408H154.141C154.056 153.832 153.832 153.379 153.469 153.048C153.117 152.707 152.653 152.536 152.077 152.536C151.522 152.536 151.048 152.712 150.653 153.064C150.269 153.405 150.034 153.853 149.949 154.408Z" fill="#B80022"/>
<path d="M23.784 148.984V159H21.432V148.984H19V146.936H26.216V148.984H23.784ZM29.7548 151.688H34.1068V146.936H36.4588V159H34.1068V153.608H29.7548V159H27.4028V146.936H29.7548V151.688ZM40.856 146.936V159H38.504V146.936H40.856ZM49.1265 148.984H45.2385V151.64H48.9825V153.688H45.2385V156.952H49.1265V159H42.8865V146.936H49.1265V148.984ZM43.5425 145.608L45.9905 143.864L48.4545 145.608L47.6385 146.2L45.9905 145.256L44.3425 146.2L43.5425 145.608ZM51.019 159V146.616H52.715L59.067 155.048H59.099V146.936H61.451V159.24H59.755L53.403 150.808H53.371V159H51.019ZM75.0806 156.456H70.8886L69.8966 159H67.4166L72.1206 146.616H73.9446L78.5206 159H76.0086L75.0806 156.456ZM74.4246 154.536L72.9206 150.152H72.8886L71.5606 154.536H74.4246ZM70.5686 145.608L73.0166 143.864L75.4806 145.608L74.6646 146.2L73.0166 145.256L71.3686 146.2L70.5686 145.608ZM77.9126 143.064C77.87 143.203 77.7686 143.331 77.6086 143.448C77.4486 143.565 77.294 143.624 77.1446 143.624L75.3366 145.08V144.12L76.6486 142.568C76.7766 142.419 76.9366 142.344 77.1286 142.344C77.31 142.344 77.4486 142.413 77.5446 142.552L77.9126 143.064ZM79.5571 159V146.616H81.2531L87.6051 155.048H87.6371V146.936H89.9891V159.24H88.2931L81.9411 150.808H81.9091V159H79.5571Z" fill="#B80022"/>
<path d="M120.916 163.72L120.541 163.945C120.401 163.708 120.199 163.59 119.936 163.59C119.776 163.59 119.634 163.638 119.511 163.735C119.374 163.838 119.306 163.968 119.306 164.125C119.306 164.348 119.481 164.528 119.831 164.665L120.101 164.77C120.401 164.887 120.624 165.023 120.771 165.18C120.947 165.37 121.036 165.612 121.036 165.905C121.036 166.245 120.921 166.527 120.691 166.75C120.461 166.97 120.174 167.08 119.831 167.08C119.524 167.08 119.262 166.982 119.046 166.785C118.832 166.585 118.706 166.332 118.666 166.025L119.141 165.925C119.137 166.132 119.206 166.303 119.346 166.44C119.489 166.573 119.664 166.64 119.871 166.64C120.071 166.64 120.236 166.568 120.366 166.425C120.499 166.282 120.566 166.108 120.566 165.905C120.566 165.722 120.497 165.568 120.361 165.445C120.267 165.362 120.119 165.277 119.916 165.19L119.656 165.08C119.109 164.85 118.836 164.532 118.836 164.125C118.836 163.832 118.949 163.592 119.176 163.405C119.389 163.235 119.646 163.15 119.946 163.15C120.379 163.15 120.702 163.34 120.916 163.72ZM122.206 163.23V167H121.736V163.23H122.206ZM123.068 167V163.05L125.898 166.015V163.23H126.368V167.155L123.538 164.19V167H123.068ZM129.984 163.405V163.95C129.707 163.703 129.376 163.58 128.989 163.58C128.569 163.58 128.216 163.732 127.929 164.035C127.642 164.335 127.499 164.697 127.499 165.12C127.499 165.54 127.641 165.9 127.924 166.2C128.207 166.5 128.559 166.65 128.979 166.65C129.359 166.65 129.694 166.52 129.984 166.26V166.815C129.684 166.992 129.354 167.08 128.994 167.08C128.447 167.08 127.982 166.892 127.599 166.515C127.219 166.138 127.029 165.678 127.029 165.135C127.029 164.575 127.222 164.105 127.609 163.725C127.999 163.342 128.474 163.15 129.034 163.15C129.391 163.15 129.707 163.235 129.984 163.405ZM130.745 167V163.23H132.77V163.66H131.215V164.715H132.725V165.145H131.215V166.57H132.77V167H130.745ZM136.107 163.66H135.452L135.712 163.23H136.557V167H136.107V163.66ZM138.993 167.08L138.653 166.845L139.658 165.49L139.648 165.48C139.555 165.527 139.433 165.55 139.283 165.55C138.976 165.55 138.716 165.435 138.503 165.205C138.293 164.972 138.188 164.7 138.188 164.39C138.188 164.043 138.308 163.75 138.548 163.51C138.791 163.27 139.086 163.15 139.433 163.15C139.766 163.15 140.058 163.268 140.308 163.505C140.561 163.742 140.688 164.025 140.688 164.355C140.688 164.652 140.551 164.983 140.278 165.35L138.993 167.08ZM139.438 165.15C139.661 165.15 139.85 165.075 140.003 164.925C140.16 164.772 140.238 164.583 140.238 164.36C140.238 164.153 140.16 163.97 140.003 163.81C139.85 163.65 139.671 163.57 139.468 163.57C139.245 163.57 139.05 163.647 138.883 163.8C138.72 163.953 138.638 164.14 138.638 164.36C138.638 164.573 138.718 164.758 138.878 164.915C139.038 165.072 139.225 165.15 139.438 165.15ZM142.084 167.08L141.744 166.845L142.749 165.49L142.739 165.48C142.645 165.527 142.524 165.55 142.374 165.55C142.067 165.55 141.807 165.435 141.594 165.205C141.384 164.972 141.279 164.7 141.279 164.39C141.279 164.043 141.399 163.75 141.639 163.51C141.882 163.27 142.177 163.15 142.524 163.15C142.857 163.15 143.149 163.268 143.399 163.505C143.652 163.742 143.779 164.025 143.779 164.355C143.779 164.652 143.642 164.983 143.369 165.35L142.084 167.08ZM142.529 165.15C142.752 165.15 142.94 165.075 143.094 164.925C143.25 164.772 143.329 164.583 143.329 164.36C143.329 164.153 143.25 163.97 143.094 163.81C142.94 163.65 142.762 163.57 142.559 163.57C142.335 163.57 142.14 163.647 141.974 163.8C141.81 163.953 141.729 164.14 141.729 164.36C141.729 164.573 141.809 164.758 141.969 164.915C142.129 165.072 142.315 165.15 142.529 165.15ZM146.294 163.66H144.344V163.23H147.059L144.709 167.08L144.344 166.855L146.294 163.66Z" fill="#B80022"/>
<mask id="path-7-outside-2_730_11" maskUnits="userSpaceOnUse" x="23" y="37" width="14" height="78" fill="black">
<rect fill="white" x="23" y="37" width="14" height="78"/>
<path d="M23.502 113.96V107.316C23.502 106.665 23.6602 106.073 23.9766 105.54C24.293 105.001 24.7178 104.573 25.251 104.257C25.7783 103.941 26.3672 103.782 27.0176 103.782H32.5195C33.1582 103.782 33.7412 103.941 34.2686 104.257C34.7959 104.573 35.2178 105.001 35.5342 105.54C35.8447 106.073 36 106.665 36 107.316V113.96H23.502ZM34.1455 107.316C34.1455 106.847 33.9844 106.448 33.6621 106.12C33.3398 105.792 32.9502 105.628 32.4932 105.628H27.0176C26.5547 105.628 26.1621 105.792 25.8398 106.12C25.5117 106.448 25.3477 106.847 25.3477 107.316V112.106H34.1455V107.316ZM23.502 97.5371V87.8428H25.3477V95.6827H34.1455V87.8428H36V97.5371H23.502ZM28.5732 94.628V87.8428H30.4189V94.628H28.5732ZM27.0176 81.7646C26.3672 81.7646 25.7783 81.6035 25.251 81.2812C24.7178 80.959 24.293 80.5283 23.9766 79.9893C23.6602 79.4502 23.502 78.8525 23.502 78.1963V71.6484H25.3477V78.1963C25.3477 78.6709 25.5117 79.0752 25.8398 79.4092C26.1621 79.7432 26.5547 79.9102 27.0176 79.9102H32.5195C32.9648 79.9102 33.3486 79.7432 33.6709 79.4092C33.9873 79.0752 34.1455 78.6709 34.1455 78.1963V71.6484H36V78.1963C36 78.8525 35.8447 79.4502 35.5342 79.9893C35.2236 80.5283 34.8076 80.959 34.2861 81.2812C33.7588 81.6035 33.1787 81.7646 32.5459 81.7646H27.0176ZM27.0176 65.4824C26.3672 65.4824 25.7783 65.3154 25.251 64.9814C24.7178 64.6416 24.293 64.1904 23.9766 63.6279C23.6602 63.0654 23.502 62.4414 23.502 61.7558V58.8291C23.502 58.1435 23.6602 57.5195 23.9766 56.957C24.293 56.3886 24.7178 55.9375 25.251 55.6035C25.7783 55.2695 26.3672 55.1025 27.0176 55.1025H32.4844C33.1289 55.1025 33.7178 55.2695 34.251 55.6035C34.7842 55.9375 35.209 56.3886 35.5254 56.957C35.8418 57.5195 36 58.1435 36 58.8291V61.7558C36 62.4414 35.8418 63.0654 35.5254 63.6279C35.209 64.1904 34.7842 64.6416 34.251 64.9814C33.7178 65.3154 33.1289 65.4824 32.4844 65.4824H27.0176ZM32.4932 63.6279C32.9502 63.6279 33.3428 63.4462 33.6709 63.083C33.9932 62.7138 34.1543 62.2714 34.1543 61.7558V58.8291C34.1543 58.3076 33.9932 57.8652 33.6709 57.5019C33.3428 57.1386 32.9502 56.957 32.4932 56.957H27.0088C26.5518 56.957 26.1621 57.1386 25.8398 57.5019C25.5117 57.8652 25.3477 58.3076 25.3477 58.8291V61.7558C25.3477 62.2714 25.5117 62.7138 25.8398 63.083C26.1621 63.4462 26.5518 63.6279 27.0088 63.6279H32.4932ZM23.502 48.6728V42.0634C23.502 41.495 23.6426 40.9794 23.9238 40.5165C24.1992 40.0478 24.5684 39.6757 25.0312 39.4003C25.4941 39.1191 26.0098 38.9784 26.5781 38.9784H27.8262C28.3945 38.9784 28.9072 39.1161 29.3643 39.3915C29.8213 39.6611 30.1846 40.0302 30.4541 40.4989C30.7236 40.9677 30.8584 41.4921 30.8584 42.0722L36 38.3456V40.6044L30.8584 44.331V45.7636H29.0127V42.0634C29.0127 41.7177 28.8955 41.4247 28.6611 41.1845C28.4209 40.9443 28.1338 40.8241 27.7998 40.8241H26.5781C26.2383 40.8241 25.9482 40.9443 25.708 41.1845C25.4678 41.4247 25.3477 41.7177 25.3477 42.0634V46.8183H36V48.6728H23.502Z"/>
</mask>
<path d="M23.502 113.96V107.316C23.502 106.665 23.6602 106.073 23.9766 105.54C24.293 105.001 24.7178 104.573 25.251 104.257C25.7783 103.941 26.3672 103.782 27.0176 103.782H32.5195C33.1582 103.782 33.7412 103.941 34.2686 104.257C34.7959 104.573 35.2178 105.001 35.5342 105.54C35.8447 106.073 36 106.665 36 107.316V113.96H23.502ZM34.1455 107.316C34.1455 106.847 33.9844 106.448 33.6621 106.12C33.3398 105.792 32.9502 105.628 32.4932 105.628H27.0176C26.5547 105.628 26.1621 105.792 25.8398 106.12C25.5117 106.448 25.3477 106.847 25.3477 107.316V112.106H34.1455V107.316ZM23.502 97.5371V87.8428H25.3477V95.6827H34.1455V87.8428H36V97.5371H23.502ZM28.5732 94.628V87.8428H30.4189V94.628H28.5732ZM27.0176 81.7646C26.3672 81.7646 25.7783 81.6035 25.251 81.2812C24.7178 80.959 24.293 80.5283 23.9766 79.9893C23.6602 79.4502 23.502 78.8525 23.502 78.1963V71.6484H25.3477V78.1963C25.3477 78.6709 25.5117 79.0752 25.8398 79.4092C26.1621 79.7432 26.5547 79.9102 27.0176 79.9102H32.5195C32.9648 79.9102 33.3486 79.7432 33.6709 79.4092C33.9873 79.0752 34.1455 78.6709 34.1455 78.1963V71.6484H36V78.1963C36 78.8525 35.8447 79.4502 35.5342 79.9893C35.2236 80.5283 34.8076 80.959 34.2861 81.2812C33.7588 81.6035 33.1787 81.7646 32.5459 81.7646H27.0176ZM27.0176 65.4824C26.3672 65.4824 25.7783 65.3154 25.251 64.9814C24.7178 64.6416 24.293 64.1904 23.9766 63.6279C23.6602 63.0654 23.502 62.4414 23.502 61.7558V58.8291C23.502 58.1435 23.6602 57.5195 23.9766 56.957C24.293 56.3886 24.7178 55.9375 25.251 55.6035C25.7783 55.2695 26.3672 55.1025 27.0176 55.1025H32.4844C33.1289 55.1025 33.7178 55.2695 34.251 55.6035C34.7842 55.9375 35.209 56.3886 35.5254 56.957C35.8418 57.5195 36 58.1435 36 58.8291V61.7558C36 62.4414 35.8418 63.0654 35.5254 63.6279C35.209 64.1904 34.7842 64.6416 34.251 64.9814C33.7178 65.3154 33.1289 65.4824 32.4844 65.4824H27.0176ZM32.4932 63.6279C32.9502 63.6279 33.3428 63.4462 33.6709 63.083C33.9932 62.7138 34.1543 62.2714 34.1543 61.7558V58.8291C34.1543 58.3076 33.9932 57.8652 33.6709 57.5019C33.3428 57.1386 32.9502 56.957 32.4932 56.957H27.0088C26.5518 56.957 26.1621 57.1386 25.8398 57.5019C25.5117 57.8652 25.3477 58.3076 25.3477 58.8291V61.7558C25.3477 62.2714 25.5117 62.7138 25.8398 63.083C26.1621 63.4462 26.5518 63.6279 27.0088 63.6279H32.4932ZM23.502 48.6728V42.0634C23.502 41.495 23.6426 40.9794 23.9238 40.5165C24.1992 40.0478 24.5684 39.6757 25.0312 39.4003C25.4941 39.1191 26.0098 38.9784 26.5781 38.9784H27.8262C28.3945 38.9784 28.9072 39.1161 29.3643 39.3915C29.8213 39.6611 30.1846 40.0302 30.4541 40.4989C30.7236 40.9677 30.8584 41.4921 30.8584 42.0722L36 38.3456V40.6044L30.8584 44.331V45.7636H29.0127V42.0634C29.0127 41.7177 28.8955 41.4247 28.6611 41.1845C28.4209 40.9443 28.1338 40.8241 27.7998 40.8241H26.5781C26.2383 40.8241 25.9482 40.9443 25.708 41.1845C25.4678 41.4247 25.3477 41.7177 25.3477 42.0634V46.8183H36V48.6728H23.502Z" fill="#B80022"/>
<path d="M23.502 113.96H23.102V114.36H23.502V113.96ZM23.9766 105.54L24.3206 105.744L24.3215 105.743L23.9766 105.54ZM25.251 104.257L25.4551 104.601L25.4568 104.6L25.251 104.257ZM35.5342 105.54L35.8798 105.339L35.8791 105.338L35.5342 105.54ZM36 113.96V114.36H36.4V113.96H36ZM25.8398 106.12L26.1227 106.403L26.1252 106.4L25.8398 106.12ZM25.3477 112.106H24.9477V112.506H25.3477V112.106ZM34.1455 112.106V112.506H34.5455V112.106H34.1455ZM23.502 113.96H23.902V107.316H23.502H23.102V113.96H23.502ZM23.502 107.316H23.902C23.902 106.733 24.0426 106.213 24.3206 105.744L23.9766 105.54L23.6326 105.336C23.2777 105.934 23.102 106.597 23.102 107.316H23.502ZM23.9766 105.54L24.3215 105.743C24.604 105.261 24.9805 104.883 25.4551 104.601L25.251 104.257L25.0468 103.913C24.455 104.264 23.9819 104.741 23.6316 105.338L23.9766 105.54ZM25.251 104.257L25.4568 104.6C25.9183 104.323 26.4353 104.182 27.0176 104.182V103.782V103.382C26.299 103.382 25.6383 103.558 25.0452 103.914L25.251 104.257ZM27.0176 103.782V104.182H32.5195V103.782V103.382H27.0176V103.782ZM32.5195 103.782V104.182C33.0886 104.182 33.6 104.322 34.0628 104.6L34.2686 104.257L34.4744 103.914C33.8824 103.559 33.2278 103.382 32.5195 103.382V103.782ZM34.2686 104.257L34.0628 104.6C34.5317 104.881 34.9061 105.26 35.1892 105.743L35.5342 105.54L35.8791 105.338C35.5294 104.742 35.0601 104.265 34.4744 103.914L34.2686 104.257ZM35.5342 105.54L35.1885 105.741C35.4615 106.21 35.6 106.732 35.6 107.316H36H36.4C36.4 106.598 36.2279 105.936 35.8798 105.339L35.5342 105.54ZM36 107.316H35.6V113.96H36H36.4V107.316H36ZM36 113.96V113.56H23.502V113.96V114.36H36V113.96ZM34.1455 107.316H34.5455C34.5455 106.744 34.3448 106.244 33.9475 105.84L33.6621 106.12L33.3767 106.4C33.624 106.652 33.7455 106.949 33.7455 107.316H34.1455ZM33.6621 106.12L33.9475 105.84C33.5505 105.436 33.0583 105.228 32.4932 105.228V105.628V106.028C32.8421 106.028 33.1291 106.148 33.3767 106.4L33.6621 106.12ZM32.4932 105.628V105.228H27.0176V105.628V106.028H32.4932V105.628ZM27.0176 105.628V105.228C26.4481 105.228 25.9525 105.435 25.5545 105.84L25.8398 106.12L26.1252 106.4C26.3717 106.149 26.6612 106.028 27.0176 106.028V105.628ZM25.8398 106.12L25.557 105.837C25.153 106.241 24.9477 106.742 24.9477 107.316H25.3477H25.7477C25.7477 106.952 25.8704 106.655 26.1227 106.403L25.8398 106.12ZM25.3477 107.316H24.9477V112.106H25.3477H25.7477V107.316H25.3477ZM25.3477 112.106V112.506H34.1455V112.106V111.706H25.3477V112.106ZM34.1455 112.106H34.5455V107.316H34.1455H33.7455V112.106H34.1455ZM23.502 97.5371H23.102V97.9371H23.502V97.5371ZM23.502 87.8428V87.4428H23.102V87.8428H23.502ZM25.3477 87.8428H25.7477V87.4428H25.3477V87.8428ZM25.3477 95.6827H24.9477V96.0827H25.3477V95.6827ZM34.1455 95.6827V96.0827H34.5455V95.6827H34.1455ZM34.1455 87.8428V87.4428H33.7455V87.8428H34.1455ZM36 87.8428H36.4V87.4428H36V87.8428ZM36 97.5371V97.9371H36.4V97.5371H36ZM28.5732 94.628H28.1732V95.028H28.5732V94.628ZM28.5732 87.8428V87.4428H28.1732V87.8428H28.5732ZM30.4189 87.8428H30.8189V87.4428H30.4189V87.8428ZM30.4189 94.628V95.028H30.8189V94.628H30.4189ZM23.502 97.5371H23.902V87.8428H23.502H23.102V97.5371H23.502ZM23.502 87.8428V88.2428H25.3477V87.8428V87.4428H23.502V87.8428ZM25.3477 87.8428H24.9477V95.6827H25.3477H25.7477V87.8428H25.3477ZM25.3477 95.6827V96.0827H34.1455V95.6827V95.2827H25.3477V95.6827ZM34.1455 95.6827H34.5455V87.8428H34.1455H33.7455V95.6827H34.1455ZM34.1455 87.8428V88.2428H36V87.8428V87.4428H34.1455V87.8428ZM36 87.8428H35.6V97.5371H36H36.4V87.8428H36ZM36 97.5371V97.1371H23.502V97.5371V97.9371H36V97.5371ZM28.5732 94.628H28.9732V87.8428H28.5732H28.1732V94.628H28.5732ZM28.5732 87.8428V88.2428H30.4189V87.8428V87.4428H28.5732V87.8428ZM30.4189 87.8428H30.0189V94.628H30.4189H30.8189V87.8428H30.4189ZM30.4189 94.628V94.228H28.5732V94.628V95.028H30.4189V94.628ZM25.251 81.2812L25.4596 80.9399L25.4579 80.9389L25.251 81.2812ZM23.502 71.6484V71.2484H23.102V71.6484H23.502ZM25.3477 71.6484H25.7477V71.2484H25.3477V71.6484ZM25.8398 79.4092L26.1277 79.1314L26.1252 79.1289L25.8398 79.4092ZM33.6709 79.4092L33.9588 79.6869L33.9613 79.6843L33.6709 79.4092ZM34.1455 71.6484V71.2484H33.7455V71.6484H34.1455ZM36 71.6484H36.4V71.2484H36V71.6484ZM34.2861 81.2812L34.4947 81.6226L34.4964 81.6215L34.2861 81.2812ZM27.0176 81.7646V81.3646C26.4368 81.3646 25.9207 81.2218 25.4596 80.9399L25.251 81.2812L25.0424 81.6226C25.6359 81.9853 26.2976 82.1646 27.0176 82.1646V81.7646ZM25.251 81.2812L25.4579 80.9389C24.9818 80.6512 24.6044 80.2687 24.3215 79.7868L23.9766 79.9893L23.6316 80.1917C23.9816 80.788 24.4537 81.2668 25.0441 81.6236L25.251 81.2812ZM23.9766 79.9893L24.3215 79.7868C24.043 79.3122 23.902 78.7851 23.902 78.1963H23.502H23.102C23.102 78.92 23.2773 79.5882 23.6316 80.1917L23.9766 79.9893ZM23.502 78.1963H23.902V71.6484H23.502H23.102V78.1963H23.502ZM23.502 71.6484V72.0484H25.3477V71.6484V71.2484H23.502V71.6484ZM25.3477 71.6484H24.9477V78.1963H25.3477H25.7477V71.6484H25.3477ZM25.3477 78.1963H24.9477C24.9477 78.7742 25.1518 79.2796 25.5545 79.6895L25.8398 79.4092L26.1252 79.1289C25.8717 78.8708 25.7477 78.5676 25.7477 78.1963H25.3477ZM25.8398 79.4092L25.552 79.6869C25.9494 80.0988 26.4458 80.3102 27.0176 80.3102V79.9102V79.5102C26.6636 79.5102 26.3748 79.3875 26.1277 79.1314L25.8398 79.4092ZM27.0176 79.9102V80.3102H32.5195V79.9102V79.5102H27.0176V79.9102ZM32.5195 79.9102V80.3102C33.0784 80.3102 33.5647 80.0953 33.9587 79.6869L33.6709 79.4092L33.3831 79.1314C33.1326 79.391 32.8512 79.5102 32.5195 79.5102V79.9102ZM33.6709 79.4092L33.9613 79.6843C34.3505 79.2734 34.5455 78.7697 34.5455 78.1963H34.1455H33.7455C33.7455 78.5721 33.6241 78.877 33.3805 79.1341L33.6709 79.4092ZM34.1455 78.1963H34.5455V71.6484H34.1455H33.7455V78.1963H34.1455ZM34.1455 71.6484V72.0484H36V71.6484V71.2484H34.1455V71.6484ZM36 71.6484H35.6V78.1963H36H36.4V71.6484H36ZM36 78.1963H35.6C35.6 78.7864 35.4612 79.3146 35.1876 79.7896L35.5342 79.9893L35.8808 80.1889C36.2283 79.5858 36.4 78.9186 36.4 78.1963H36ZM35.5342 79.9893L35.1876 79.7896C34.9096 80.2721 34.5401 80.6541 34.0759 80.941L34.2861 81.2812L34.4964 81.6215C35.0751 81.2639 35.5377 80.7845 35.8808 80.1889L35.5342 79.9893ZM34.2861 81.2812L34.0776 80.9399C33.6146 81.2229 33.107 81.3646 32.5459 81.3646V81.7646V82.1646C33.2505 82.1646 33.903 81.9842 34.4947 81.6226L34.2861 81.2812ZM32.5459 81.7646V81.3646H27.0176V81.7646V82.1646H32.5459V81.7646ZM25.251 64.9814L25.036 65.3187L25.037 65.3193L25.251 64.9814ZM23.9766 56.957L24.3252 57.1531L24.3261 57.1516L23.9766 56.957ZM25.251 55.6035L25.4633 55.9425L25.465 55.9414L25.251 55.6035ZM35.5254 56.957L35.1759 57.1516L35.1768 57.1531L35.5254 56.957ZM34.251 64.9814L34.4633 65.3204L34.466 65.3187L34.251 64.9814ZM33.6709 63.083L33.9678 63.3511L33.9722 63.346L33.6709 63.083ZM33.6709 57.5019L33.9701 57.2365L33.9677 57.2338L33.6709 57.5019ZM25.8398 57.5019L26.1367 57.77L26.1391 57.7674L25.8398 57.5019ZM25.8398 63.083L26.1391 62.8175L26.1388 62.8172L25.8398 63.083ZM27.0176 65.4824V65.0824C26.4396 65.0824 25.9256 64.9352 25.465 64.6435L25.251 64.9814L25.037 65.3193C25.6311 65.6956 26.2948 65.8824 27.0176 65.8824V65.4824ZM25.251 64.9814L25.466 64.6441C24.9894 64.3404 24.61 63.9382 24.3252 63.4318L23.9766 63.6279L23.6279 63.824C23.9759 64.4426 24.4461 64.9428 25.036 65.3187L25.251 64.9814ZM23.9766 63.6279L24.3252 63.4318C24.0446 62.9329 23.902 62.3771 23.902 61.7558H23.502H23.102C23.102 62.5056 23.2757 63.1979 23.6279 63.824L23.9766 63.6279ZM23.502 61.7558H23.902V58.8291H23.502H23.102V61.7558H23.502ZM23.502 58.8291H23.902C23.902 58.2078 24.0446 57.652 24.3252 57.1531L23.9766 56.957L23.6279 56.7609C23.2757 57.387 23.102 58.0792 23.102 58.8291H23.502ZM23.9766 56.957L24.3261 57.1516C24.6108 56.6401 24.9893 56.2394 25.4633 55.9425L25.251 55.6035L25.0386 55.2645C24.4463 55.6355 23.9751 56.1372 23.6271 56.7624L23.9766 56.957ZM25.251 55.6035L25.465 55.9414C25.9256 55.6497 26.4396 55.5025 27.0176 55.5025V55.1025V54.7025C26.2948 54.7025 25.6311 54.8893 25.037 55.2655L25.251 55.6035ZM27.0176 55.1025V55.5025H32.4844V55.1025V54.7025H27.0176V55.1025ZM32.4844 55.1025V55.5025C33.0557 55.5025 33.5707 55.6494 34.0386 55.9425L34.251 55.6035L34.4633 55.2645C33.8648 54.8896 33.2021 54.7025 32.4844 54.7025V55.1025ZM34.251 55.6035L34.0386 55.9425C34.5127 56.2394 34.8911 56.6401 35.1759 57.1516L35.5254 56.957L35.8749 56.7624C35.5268 56.1372 35.0557 55.6355 34.4633 55.2645L34.251 55.6035ZM35.5254 56.957L35.1768 57.1531C35.4574 57.652 35.6 58.2078 35.6 58.8291H36H36.4C36.4 58.0792 36.2262 57.387 35.874 56.7609L35.5254 56.957ZM36 58.8291H35.6V61.7558H36H36.4V58.8291H36ZM36 61.7558H35.6C35.6 62.3771 35.4574 62.9329 35.1768 63.4318L35.5254 63.6279L35.874 63.824C36.2262 63.1979 36.4 62.5056 36.4 61.7558H36ZM35.5254 63.6279L35.1768 63.4318C34.8919 63.9382 34.5125 64.3404 34.036 64.6441L34.251 64.9814L34.466 65.3187C35.0558 64.9428 35.5261 64.4426 35.874 63.824L35.5254 63.6279ZM34.251 64.9814L34.0386 64.6424C33.5707 64.9355 33.0557 65.0824 32.4844 65.0824V65.4824V65.8824C33.2021 65.8824 33.8648 65.6953 34.4633 65.3204L34.251 64.9814ZM32.4844 65.4824V65.0824H27.0176V65.4824V65.8824H32.4844V65.4824ZM32.4932 63.6279V64.0279C33.0721 64.0279 33.5698 63.7916 33.9677 63.3511L33.6709 63.083L33.3741 62.8148C33.1157 63.1009 32.8283 63.2279 32.4932 63.2279V63.6279ZM33.6709 63.083L33.9722 63.346C34.3616 62.9 34.5543 62.3627 34.5543 61.7558H34.1543H33.7543C33.7543 62.1802 33.6247 62.5277 33.3696 62.8199L33.6709 63.083ZM34.1543 61.7558H34.5543V58.8291H34.1543H33.7543V61.7558H34.1543ZM34.1543 58.8291H34.5543C34.5543 58.2176 34.3623 57.6786 33.9701 57.2365L33.6709 57.5019L33.3717 57.7674C33.624 58.0518 33.7543 58.3976 33.7543 58.8291H34.1543ZM33.6709 57.5019L33.9677 57.2338C33.5698 56.7933 33.0721 56.557 32.4932 56.557V56.957V57.357C32.8283 57.357 33.1157 57.484 33.3741 57.77L33.6709 57.5019ZM32.4932 56.957V56.557H27.0088V56.957V57.357H32.4932V56.957ZM27.0088 56.957V56.557C26.4295 56.557 25.9334 56.7937 25.5406 57.2365L25.8398 57.5019L26.1391 57.7674C26.3908 57.4836 26.674 57.357 27.0088 57.357V56.957ZM25.8398 57.5019L25.543 57.2338C25.1439 57.6757 24.9477 58.2156 24.9477 58.8291H25.3477H25.7477C25.7477 58.3996 25.8795 58.0547 26.1367 57.77L25.8398 57.5019ZM25.3477 58.8291H24.9477V61.7558H25.3477H25.7477V58.8291H25.3477ZM25.3477 61.7558H24.9477C24.9477 62.3647 25.1446 62.9029 25.5409 63.3487L25.8398 63.083L26.1388 62.8172C25.8788 62.5248 25.7477 62.1782 25.7477 61.7558H25.3477ZM25.8398 63.083L25.5406 63.3484C25.9334 63.7912 26.4295 64.0279 27.0088 64.0279V63.6279V63.2279C26.674 63.2279 26.3908 63.1013 26.1391 62.8175L25.8398 63.083ZM27.0088 63.6279V64.0279H32.4932V63.6279V63.2279H27.0088V63.6279ZM23.502 48.6728H23.102V49.0728H23.502V48.6728ZM23.9238 40.5165L24.2657 40.7243L24.2687 40.7191L23.9238 40.5165ZM25.0312 39.4003L25.2358 39.7441L25.239 39.7422L25.0312 39.4003ZM29.3643 39.3915L29.1578 39.7341L29.1611 39.7361L29.3643 39.3915ZM30.8584 42.0722H30.4584V42.8561L31.0931 42.3961L30.8584 42.0722ZM36 38.3456H36.4V37.5617L35.7653 38.0218L36 38.3456ZM36 40.6044L36.2347 40.9283L36.4 40.8085V40.6044H36ZM30.8584 44.331L30.6237 44.0071L30.4584 44.1269V44.331H30.8584ZM30.8584 45.7636V46.1636H31.2584V45.7636H30.8584ZM29.0127 45.7636H28.6127V46.1636H29.0127V45.7636ZM28.6611 41.1845L28.9475 40.9051L28.944 40.9016L28.6611 41.1845ZM25.3477 46.8183H24.9477V47.2183H25.3477V46.8183ZM36 46.8183H36.4V46.4183H36V46.8183ZM36 48.6728V49.0728H36.4V48.6728H36ZM23.502 48.6728H23.902V42.0634H23.502H23.102V48.6728H23.502ZM23.502 42.0634H23.902C23.902 41.5645 24.0244 41.1214 24.2657 40.7242L23.9238 40.5165L23.582 40.3088C23.2608 40.8375 23.102 41.4256 23.102 42.0634H23.502ZM23.9238 40.5165L24.2687 40.7191C24.5103 40.308 24.8314 39.9847 25.2358 39.7441L25.0312 39.4003L24.8267 39.0565C24.3053 39.3667 23.8881 39.7876 23.5789 40.3139L23.9238 40.5165ZM25.0312 39.4003L25.239 39.7422C25.6361 39.5009 26.0792 39.3784 26.5781 39.3784V38.9784V38.5784C25.9403 38.5784 25.3522 38.7373 24.8235 39.0585L25.0312 39.4003ZM26.5781 38.9784V39.3784H27.8262V38.9784V38.5784H26.5781V38.9784ZM27.8262 38.9784V39.3784C28.3267 39.3784 28.7672 39.4988 29.1578 39.7341L29.3643 39.3915L29.5707 39.0489C29.0473 38.7335 28.4624 38.5784 27.8262 38.5784V38.9784ZM29.3643 39.3915L29.1611 39.7361C29.5573 39.9698 29.8716 40.2884 30.1073 40.6983L30.4541 40.4989L30.8009 40.2996C30.4975 39.772 30.0853 39.3524 29.5675 39.047L29.3643 39.3915ZM30.4541 40.4989L30.1073 40.6983C30.3395 41.102 30.4584 41.5568 30.4584 42.0722H30.8584H31.2584C31.2584 41.4274 31.1078 40.8334 30.8009 40.2996L30.4541 40.4989ZM30.8584 42.0722L31.0931 42.3961L36.2347 38.6695L36 38.3456L35.7653 38.0218L30.6237 41.7483L30.8584 42.0722ZM36 38.3456H35.6V40.6044H36H36.4V38.3456H36ZM36 40.6044L35.7653 40.2805L30.6237 44.0071L30.8584 44.331L31.0931 44.6549L36.2347 40.9283L36 40.6044ZM30.8584 44.331H30.4584V45.7636H30.8584H31.2584V44.331H30.8584ZM30.8584 45.7636V45.3636H29.0127V45.7636V46.1636H30.8584V45.7636ZM29.0127 45.7636H29.4127V42.0634H29.0127H28.6127V45.7636H29.0127ZM29.0127 42.0634H29.4127C29.4127 41.6168 29.2571 41.2226 28.9474 40.9052L28.6611 41.1845L28.3748 41.4638C28.5339 41.6269 28.6127 41.8186 28.6127 42.0634H29.0127ZM28.6611 41.1845L28.944 40.9016C28.6302 40.5879 28.2419 40.4241 27.7998 40.4241V40.8241V41.2241C28.0257 41.2241 28.2116 41.3007 28.3783 41.4673L28.6611 41.1845ZM27.7998 40.8241V40.4241H26.5781V40.8241V41.2241H27.7998V40.8241ZM26.5781 40.8241V40.4241C26.1322 40.4241 25.7404 40.5864 25.4252 40.9016L25.708 41.1845L25.9909 41.4673C26.156 41.3021 26.3443 41.2241 26.5781 41.2241V40.8241ZM25.708 41.1845L25.4252 40.9016C25.1085 41.2184 24.9477 41.6137 24.9477 42.0634H25.3477H25.7477C25.7477 41.8217 25.8271 41.6311 25.9909 41.4673L25.708 41.1845ZM25.3477 42.0634H24.9477V46.8183H25.3477H25.7477V42.0634H25.3477ZM25.3477 46.8183V47.2183H36V46.8183V46.4183H25.3477V46.8183ZM36 46.8183H35.6V48.6728H36H36.4V46.8183H36ZM36 48.6728V48.2728H23.502V48.6728V49.0728H36V48.6728Z" fill="#B80022" mask="url(#path-7-outside-2_730_11)"/>
</svg>
